<svg width="24" height="24" viewBox="0 0 24 24" fill="none" xmlns="http://www.w3.org/2000/svg">
<path fill-rule="evenodd" clip-rule="evenodd" d="M4 15.1716L4 3H6L6 15.1716C6.04979 15.1892 6.09915 15.2081 6.14805 15.2284C6.51203 15.3791 6.84274 15.6001 7.12132 15.8787C7.3999 16.1573 7.62087 16.488 7.77164 16.8519C7.9224 17.2159 8 17.606 8 18L8 18.0032C7.99957 18.3961 7.92199 18.7851 7.77164 19.1481C7.62087 19.512 7.3999 19.8427 7.12132 20.1213C6.84274 20.3999 6.51203 20.6209 6.14805 20.7716C5.78407 20.9224 5.39397 21 5 21C4.60603 21 4.21593 20.9224 3.85195 20.7716C3.48797 20.6209 3.15726 20.3999 2.87868 20.1213C2.6001 19.8427 2.37913 19.512 2.22836 19.1481C2.0776 18.7841 2 18.394 2 18C2 17.606 2.0776 17.2159 2.22836 16.8519C2.37913 16.488 2.6001 16.1573 2.87868 15.8787C3.15726 15.6001 3.48797 15.3791 3.85195 15.2284C3.90085 15.2081 3.95021 15.1892 4 15.1716ZM4.61732 18.9239C4.73864 18.9741 4.86868 19 5 19C5.13132 19 5.26136 18.9741 5.38268 18.9239C5.50401 18.8736 5.61425 18.8 5.70711 18.7071C5.79997 18.6142 5.87362 18.504 5.92388 18.3827C5.97413 18.2614 6 18.1313 6 18C6 17.8687 5.97413 17.7386 5.92388 17.6173C5.87362 17.496 5.79997 17.3858 5.70711 17.2929C5.61425 17.2 5.50401 17.1264 5.38268 17.0761C5.26136 17.0259 5.13132 17 5 17C4.86868 17 4.73864 17.0259 4.61732 17.0761C4.49599 17.1264 4.38575 17.2 4.29289 17.2929C4.20003 17.3858 4.12638 17.496 4.07612 17.6173C4.02587 17.7386 4 17.8687 4 18C4 18.1313 4.02587 18.2614 4.07612 18.3827C4.12638 18.504 4.20003 18.6142 4.29289 18.7071C4.38575 18.8 4.49599 18.8736 4.61732 18.9239Z" fill="#897DF7"/>
<path fill-rule="evenodd" clip-rule="evenodd" d="M13 9.17157C13.0498 9.18917 13.0992 9.20811 13.1481 9.22836C13.512 9.37913 13.8427 9.6001 14.1213 9.87868C14.3999 10.1573 14.6209 10.488 14.7716 10.8519C14.9224 11.2159 15 11.606 15 12L15 12.0032C14.9996 12.3961 14.922 12.7851 14.7716 13.1481C14.6209 13.512 14.3999 13.8427 14.1213 14.1213C13.8427 14.3999 13.512 14.6209 13.1481 14.7716C13.0992 14.7919 13.0498 14.8108 13 14.8284V20H11V14.8284C10.9502 14.8108 10.9008 14.7919 10.8519 14.7716C10.488 14.6209 10.1573 14.3999 9.87868 14.1213C9.6001 13.8427 9.37913 13.512 9.22836 13.1481C9.0776 12.7841 9 12.394 9 12C9 11.606 9.0776 11.2159 9.22836 10.8519C9.37913 10.488 9.6001 10.1573 9.87868 9.87868C10.1573 9.6001 10.488 9.37913 10.8519 9.22836C10.9008 9.20811 10.9502 9.18917 11 9.17157V3H13V9.17157ZM12 13C12.1313 13 12.2614 12.9741 12.3827 12.9239C12.504 12.8736 12.6142 12.8 12.7071 12.7071C12.8 12.6142 12.8736 12.504 12.9239 12.3827C12.9741 12.2614 13 12.1313 13 12C13 11.8687 12.9741 11.7386 12.9239 11.6173C12.8736 11.496 12.8 11.3858 12.7071 11.2929C12.6142 11.2 12.504 11.1264 12.3827 11.0761C12.2614 11.0259 12.1313 11 12 11C11.8687 11 11.7386 11.0259 11.6173 11.0761C11.496 11.1264 11.3858 11.2 11.2929 11.2929C11.2 11.3858 11.1264 11.496 11.0761 11.6173C11.0259 11.7386 11 11.8687 11 12C11 12.1313 11.0259 12.2614 11.0761 12.3827C11.1264 12.504 11.2 12.6142 11.2929 12.7071C11.3858 12.8 11.496 12.8736 11.6173 12.9239C11.7386 12.9741 11.8687 13 12 13Z" fill="#897DF7"/>
<path fill-rule="evenodd" clip-rule="evenodd" d="M22 6.00323C21.9996 6.3961 21.922 6.78507 21.7716 7.14805C21.6209 7.51203 21.3999 7.84274 21.1213 8.12132C20.8427 8.3999 20.512 8.62087 20.1481 8.77164C20.0992 8.79189 20.0498 8.81082 20 8.82843V20H18V8.82843C17.9502 8.81083 17.9008 8.79189 17.8519 8.77164C17.488 8.62087 17.1573 8.3999 16.8787 8.12132C16.6001 7.84274 16.3791 7.51203 16.2284 7.14805C16.0776 6.78407 16 6.39397 16 6C16 5.60603 16.0776 5.21593 16.2284 4.85195C16.3791 4.48797 16.6001 4.15726 16.8787 3.87868C17.1573 3.6001 17.488 3.37913 17.8519 3.22836C18.2159 3.0776 18.606 3 19 3C19.394 3 19.7841 3.0776 20.1481 3.22836C20.512 3.37913 20.8427 3.6001 21.1213 3.87868C21.3999 4.15726 21.6209 4.48797 21.7716 4.85195C21.9224 5.21593 22 5.60603 22 6L22 6.00323ZM19 7C18.8687 7 18.7386 6.97413 18.6173 6.92388C18.496 6.87362 18.3858 6.79997 18.2929 6.70711C18.2 6.61425 18.1264 6.50401 18.0761 6.38268C18.0259 6.26136 18 6.13132 18 6C18 5.86868 18.0259 5.73864 18.0761 5.61732C18.1264 5.49599 18.2 5.38575 18.2929 5.29289C18.3858 5.20003 18.496 5.12638 18.6173 5.07612C18.7386 5.02587 18.8687 5 19 5C19.1313 5 19.2614 5.02587 19.3827 5.07612C19.504 5.12638 19.6142 5.20003 19.7071 5.29289C19.8 5.38575 19.8736 5.49599 19.9239 5.61732C19.9741 5.73864 20 5.86868 20 6C20 6.13132 19.9741 6.26136 19.9239 6.38268C19.8736 6.50401 19.8 6.61425 19.7071 6.70711C19.6142 6.79997 19.504 6.87362 19.3827 6.92388C19.2614 6.97413 19.1313 7 19 7Z" fill="#897DF7"/>
<path fill-rule="evenodd" clip-rule="evenodd" d="M4 15.1716L4 3H6L6 15.1716C6.04979 15.1892 6.09915 15.2081 6.14805 15.2284C6.51203 15.3791 6.84274 15.6001 7.12132 15.8787C7.3999 16.1573 7.62087 16.488 7.77164 16.8519C7.9224 17.2159 8 17.606 8 18L8 18.0032C7.99957 18.3961 7.92199 18.7851 7.77164 19.1481C7.62087 19.512 7.3999 19.8427 7.12132 20.1213C6.84274 20.3999 6.51203 20.6209 6.14805 20.7716C5.78407 20.9224 5.39397 21 5 21C4.60603 21 4.21593 20.9224 3.85195 20.7716C3.48797 20.6209 3.15726 20.3999 2.87868 20.1213C2.6001 19.8427 2.37913 19.512 2.22836 19.1481C2.0776 18.7841 2 18.394 2 18C2 17.606 2.0776 17.2159 2.22836 16.8519C2.37913 16.488 2.6001 16.1573 2.87868 15.8787C3.15726 15.6001 3.48797 15.3791 3.85195 15.2284C3.90085 15.2081 3.95021 15.1892 4 15.1716ZM4.61732 18.9239C4.73864 18.9741 4.86868 19 5 19C5.13132 19 5.26136 18.9741 5.38268 18.9239C5.50401 18.8736 5.61425 18.8 5.70711 18.7071C5.79997 18.6142 5.87362 18.504 5.92388 18.3827C5.97413 18.2614 6 18.1313 6 18C6 17.8687 5.97413 17.7386 5.92388 17.6173C5.87362 17.496 5.79997 17.3858 5.70711 17.2929C5.61425 17.2 5.50401 17.1264 5.38268 17.0761C5.26136 17.0259 5.13132 17 5 17C4.86868 17 4.73864 17.0259 4.61732 17.0761C4.49599 17.1264 4.38575 17.2 4.29289 17.2929C4.20003 17.3858 4.12638 17.496 4.07612 17.6173C4.02587 17.7386 4 17.8687 4 18C4 18.1313 4.02587 18.2614 4.07612 18.3827C4.12638 18.504 4.20003 18.6142 4.29289 18.7071C4.38575 18.8 4.49599 18.8736 4.61732 18.9239Z" stroke="#897DF7"/>
<path fill-rule="evenodd" clip-rule="evenodd" d="M13 9.17157C13.0498 9.18917 13.0992 9.20811 13.1481 9.22836C13.512 9.37913 13.8427 9.6001 14.1213 9.87868C14.3999 10.1573 14.6209 10.488 14.7716 10.8519C14.9224 11.2159 15 11.606 15 12L15 12.0032C14.9996 12.3961 14.922 12.7851 14.7716 13.1481C14.6209 13.512 14.3999 13.8427 14.1213 14.1213C13.8427 14.3999 13.512 14.6209 13.1481 14.7716C13.0992 14.7919 13.0498 14.8108 13 14.8284V20H11V14.8284C10.9502 14.8108 10.9008 14.7919 10.8519 14.7716C10.488 14.6209 10.1573 14.3999 9.87868 14.1213C9.6001 13.8427 9.37913 13.512 9.22836 13.1481C9.0776 12.7841 9 12.394 9 12C9 11.606 9.0776 11.2159 9.22836 10.8519C9.37913 10.488 9.6001 10.1573 9.87868 9.87868C10.1573 9.6001 10.488 9.37913 10.8519 9.22836C10.9008 9.20811 10.9502 9.18917 11 9.17157V3H13V9.17157ZM12 13C12.1313 13 12.2614 12.9741 12.3827 12.9239C12.504 12.8736 12.6142 12.8 12.7071 12.7071C12.8 12.6142 12.8736 12.504 12.9239 12.3827C12.9741 12.2614 13 12.1313 13 12C13 11.8687 12.9741 11.7386 12.9239 11.6173C12.8736 11.496 12.8 11.3858 12.7071 11.2929C12.6142 11.2 12.504 11.1264 12.3827 11.0761C12.2614 11.0259 12.1313 11 12 11C11.8687 11 11.7386 11.0259 11.6173 11.0761C11.496 11.1264 11.3858 11.2 11.2929 11.2929C11.2 11.3858 11.1264 11.496 11.0761 11.6173C11.0259 11.7386 11 11.8687 11 12C11 12.1313 11.0259 12.2614 11.0761 12.3827C11.1264 12.504 11.2 12.6142 11.2929 12.7071C11.3858 12.8 11.496 12.8736 11.6173 12.9239C11.7386 12.9741 11.8687 13 12 13Z" stroke="#897DF7"/>
<path fill-rule="evenodd" clip-rule="evenodd" d="M22 6.00323C21.9996 6.3961 21.922 6.78507 21.7716 7.14805C21.6209 7.51203 21.3999 7.84274 21.1213 8.12132C20.8427 8.3999 20.512 8.62087 20.1481 8.77164C20.0992 8.79189 20.0498 8.81082 20 8.82843V20H18V8.82843C17.9502 8.81083 17.9008 8.79189 17.8519 8.77164C17.488 8.62087 17.1573 8.3999 16.8787 8.12132C16.6001 7.84274 16.3791 7.51203 16.2284 7.14805C16.0776 6.78407 16 6.39397 16 6C16 5.60603 16.0776 5.21593 16.2284 4.85195C16.3791 4.48797 16.6001 4.15726 16.8787 3.87868C17.1573 3.6001 17.488 3.37913 17.8519 3.22836C18.2159 3.0776 18.606 3 19 3C19.394 3 19.7841 3.0776 20.1481 3.22836C20.512 3.37913 20.8427 3.6001 21.1213 3.87868C21.3999 4.15726 21.6209 4.48797 21.7716 4.85195C21.9224 5.21593 22 5.60603 22 6L22 6.00323ZM19 7C18.8687 7 18.7386 6.97413 18.6173 6.92388C18.496 6.87362 18.3858 6.79997 18.2929 6.70711C18.2 6.61425 18.1264 6.50401 18.0761 6.38268C18.0259 6.26136 18 6.13132 18 6C18 5.86868 18.0259 5.73864 18.0761 5.61732C18.1264 5.49599 18.2 5.38575 18.2929 5.29289C18.3858 5.20003 18.496 5.12638 18.6173 5.07612C18.7386 5.02587 18.8687 5 19 5C19.1313 5 19.2614 5.02587 19.3827 5.07612C19.504 5.12638 19.6142 5.20003 19.7071 5.29289C19.8 5.38575 19.8736 5.49599 19.9239 5.61732C19.9741 5.73864 20 5.86868 20 6C20 6.13132 19.9741 6.26136 19.9239 6.38268C19.8736 6.50401 19.8 6.61425 19.7071 6.70711C19.6142 6.79997 19.504 6.87362 19.3827 6.92388C19.2614 6.97413 19.1313 7 19 7Z" stroke="#897DF7"/>
</svg>
