<svg width="16" height="16" viewBox="0 0 16 16" fill="none" xmlns="http://www.w3.org/2000/svg">
<path d="M13.2889 3.94164C12.3955 2.77735 11.1429 1.94038 9.72538 1.56055L9.38029 2.84845C10.5143 3.15231 11.5164 3.82189 12.2311 4.75332C12.8096 5.50719 13.1736 6.39849 13.2914 7.33339L1.33325 7.33339V8.66672L13.2914 8.66672C13.1736 9.60162 12.8096 10.4929 12.2311 11.2468C11.5164 12.1782 10.5143 12.8478 9.38029 13.1517L9.72538 14.4396C11.1429 14.0597 12.3955 13.2228 13.2889 12.0585C14.1823 10.8942 14.6666 9.46761 14.6666 8.00005C14.6666 6.53249 14.1823 5.10594 13.2889 3.94164Z" fill="#897DF7"/>
</svg>
