<svg width="38" height="38" viewBox="0 0 38 38" fill="none" xmlns="http://www.w3.org/2000/svg">
<path d="M18.75 29.6875C15.8492 29.6875 13.0672 28.5352 11.016 26.484C8.96484 24.4328 7.8125 21.6508 7.8125 18.75C7.8125 15.8492 8.96484 13.0672 11.016 11.016C13.0672 8.96484 15.8492 7.8125 18.75 7.8125L18.75 18.75L18.75 29.6875Z" stroke="white" stroke-width="3.75"/>
<path d="M7.8125 21.875C6.9837 21.875 6.18884 21.5458 5.60279 20.9597C5.01674 20.3737 4.6875 19.5788 4.6875 18.75C4.6875 17.9212 5.01674 17.1263 5.60279 16.5403C6.18884 15.9542 6.9837 15.625 7.8125 15.625" stroke="white" stroke-width="3.75"/>
<path d="M21.875 29.6875C24.7758 29.6875 27.5578 28.5352 29.609 26.484C31.6602 24.4328 32.8125 21.6508 32.8125 18.75C32.8125 15.8492 31.6602 13.0672 29.609 11.016C27.5578 8.96484 24.7758 7.8125 21.875 7.8125" stroke="white" stroke-width="3.75"/>
<path d="M21.875 23.4375C23.1182 23.4375 24.3105 22.9436 25.1896 22.0646C26.0686 21.1855 26.5625 19.9932 26.5625 18.75C26.5625 17.5068 26.0686 16.3145 25.1896 15.4354C24.3105 14.5564 23.1182 14.0625 21.875 14.0625" stroke="white" stroke-width="3.75"/>
</svg>
