<svg width="30" height="30" viewBox="0 0 30 30" fill="none" xmlns="http://www.w3.org/2000/svg">
<path d="M15 17.5C14.3096 17.5 13.75 18.0596 13.75 18.75C13.75 19.4404 14.3096 20 15 20C15.6904 20 16.25 19.4404 16.25 18.75C16.25 18.0596 15.6904 17.5 15 17.5Z" fill="white"/>
<path fill-rule="evenodd" clip-rule="evenodd" d="M19.8412 6.25C19.6198 5.39247 19.1725 4.60139 18.5355 3.96447C17.5979 3.02678 16.3261 2.5 15 2.5C13.6739 2.5 12.4021 3.02678 11.4645 3.96447C10.8275 4.60139 10.3802 5.39247 10.1588 6.25H5V8.75H6.25V18.75C6.25 23.5825 10.1675 27.5 15 27.5C19.8325 27.5 23.75 23.5825 23.75 18.75V8.75H25V6.25H19.8412ZM15 5C14.337 5 13.7011 5.26339 13.2322 5.73223C13.0764 5.88808 12.9432 6.06238 12.8349 6.25L17.1651 6.25C17.0568 6.06238 16.9236 5.88808 16.7678 5.73223C16.2989 5.26339 15.663 5 15 5ZM11.25 18.75C11.25 16.6789 12.9289 15 15 15C17.0711 15 18.75 16.6789 18.75 18.75C18.75 20.8211 17.0711 22.5 15 22.5C12.9289 22.5 11.25 20.8211 11.25 18.75Z" fill="white"/>
</svg>
