<svg width="20" height="20" viewBox="0 0 20 20" fill="none" xmlns="http://www.w3.org/2000/svg">
<path d="M8.33337 15.8333H11.6667C14.4281 15.8333 16.6667 13.5948 16.6667 10.8333C16.6667 8.07192 14.4281 5.83334 11.6667 5.83334H8.33337C5.57195 5.83334 3.33337 8.07192 3.33337 10.8333C3.33337 13.5948 5.57195 15.8333 8.33337 15.8333Z" stroke="white" stroke-width="1.66667" stroke-linejoin="round"/>
<path d="M16.6666 10.8333H18.3333" stroke="white" stroke-width="1.66667" stroke-linejoin="round"/>
<path d="M1.66663 10.8333L3.33329 10.8333" stroke="white" stroke-width="1.66667" stroke-linejoin="round"/>
<circle cx="7.49996" cy="10.8333" r="0.833333" fill="white"/>
<circle cx="12.5" cy="10.8333" r="0.833333" fill="white"/>
<path d="M12.5 5.83334C12.5 6.49639 12.2366 7.13227 11.7678 7.60111C11.2989 8.06995 10.663 8.33334 10 8.33334C9.33696 8.33334 8.70107 8.06995 8.23223 7.60111C7.76339 7.13227 7.5 6.49639 7.5 5.83334" stroke="white" stroke-width="1.66667" stroke-linejoin="round"/>
</svg>
