<svg width="20" height="20" viewBox="0 0 20 20" fill="none" xmlns="http://www.w3.org/2000/svg">
<path d="M9.16667 13.3333L13.3333 9.16667C14.2538 8.24619 15.7462 8.24619 16.6667 9.16667C17.5871 10.0871 17.5871 11.5795 16.6667 12.5L12.5 16.6667C11.5795 17.5871 10.0871 17.5871 9.16667 16.6667C8.24619 15.7462 8.24619 14.2538 9.16667 13.3333Z" stroke="white" stroke-width="1.66667" stroke-linejoin="round"/>
<path d="M18.3333 7.5V5.83333C18.3333 3.99238 16.8409 2.5 15 2.5H4.99996C3.15901 2.5 1.66663 3.99238 1.66663 5.83333V7.5V7.91667C1.66663 9.06726 2.59937 10 3.74996 10C4.90055 10 5.83329 9.06726 5.83329 7.91667V7.5" stroke="white" stroke-width="1.66667" stroke-linejoin="round"/>
<path d="M5.83337 6.66675V7.91675C5.83337 9.06734 6.76611 10.0001 7.91671 10.0001C9.0673 10.0001 10 9.06734 10 7.91675V6.66675" stroke="white" stroke-width="1.66667" stroke-linejoin="round"/>
<path d="M6.66671 17.5C4.82576 17.5 3.33337 16.0076 3.33337 14.1667V10" stroke="white" stroke-width="1.66667" stroke-linejoin="round"/>
<path d="M10.8334 10.8333L15 14.9999" stroke="white" stroke-width="1.66667" stroke-linejoin="round"/>
</svg>
