<svg width="20" height="20" viewBox="0 0 20 20" fill="none" xmlns="http://www.w3.org/2000/svg">
<path d="M7.49996 4.21826V3.33334H5.83329V4.65127C4.45048 5.21102 3.29822 6.22126 2.55851 7.50001H17.4414C16.7017 6.22126 15.5494 5.21102 14.1666 4.65127V3.33334H12.5V4.21826C12.227 4.18421 11.9488 4.16668 11.6666 4.16668H8.33329C8.05108 4.16668 7.77295 4.18421 7.49996 4.21826Z" fill="white"/>
<path fill-rule="evenodd" clip-rule="evenodd" d="M1.87666 9.16668C1.73955 9.69938 1.66663 10.2578 1.66663 10.8333C1.66663 14.5152 4.65139 17.5 8.33329 17.5H11.6666C15.3485 17.5 18.3333 14.5152 18.3333 10.8333C18.3333 10.2578 18.2604 9.69938 18.1233 9.16668H1.87666ZM9.16663 12.5C9.16663 12.0398 9.53972 11.6667 9.99996 11.6667C10.4602 11.6667 10.8333 12.0398 10.8333 12.5C10.8333 12.9602 10.4602 13.3333 9.99996 13.3333C9.53972 13.3333 9.16663 12.9602 9.16663 12.5ZM13.3333 11.6667C12.8731 11.6667 12.5 12.0398 12.5 12.5C12.5 12.9602 12.8731 13.3333 13.3333 13.3333C13.7935 13.3333 14.1666 12.9602 14.1666 12.5C14.1666 12.0398 13.7935 11.6667 13.3333 11.6667ZM5.83329 12.5C5.83329 12.0398 6.20639 11.6667 6.66663 11.6667C7.12686 11.6667 7.49996 12.0398 7.49996 12.5C7.49996 12.9602 7.12686 13.3333 6.66663 13.3333C6.20639 13.3333 5.83329 12.9602 5.83329 12.5Z" fill="white"/>
</svg>
