<svg width="375" height="283" viewBox="0 0 375 283" fill="none" xmlns="http://www.w3.org/2000/svg">
<path d="M187.282 282.991C290.836 282.991 374.782 234.524 374.782 174.738C374.782 114.951 290.836 66.4849 187.282 66.4849C83.7288 66.4849 -0.217773 114.951 -0.217773 174.738C-0.217773 234.524 83.7288 282.991 187.282 282.991Z" fill="#F5F5F5"/>
<path d="M183.89 243.416C209.385 243.416 230.053 231.485 230.053 216.767C230.053 202.049 209.385 190.118 183.89 190.118C158.394 190.118 137.726 202.049 137.726 216.767C137.726 231.485 158.394 243.416 183.89 243.416Z" fill="#E0E0E0"/>
<path d="M185.537 237.839V222.565L222.624 201.151V216.433L185.537 237.839Z" fill="#37474F"/>
<path d="M185.537 237.839L148.458 216.433V201.151L185.537 222.565V237.839Z" fill="#263238"/>
<path d="M185.537 222.565L148.458 201.151L185.537 179.737L222.624 201.151L185.537 222.565Z" fill="#455A64"/>
<path d="M185.537 219.662V215.633L218.18 196.788V200.816L185.537 219.662Z" fill="#37474F"/>
<path d="M185.536 219.662L152.901 200.816V196.788L185.536 215.633V219.662Z" fill="#263238"/>
<path d="M185.536 215.633L152.901 196.788L185.536 177.942L218.179 196.788L185.536 215.633Z" fill="#455A64"/>
<path d="M153.75 156.308C152.013 156.308 150.194 156.235 148.335 156.072C134.089 154.783 124.687 148.292 121.172 137.316C120.302 134.507 119.998 131.554 120.278 128.627C120.558 125.7 121.416 122.858 122.803 120.265C124.101 117.737 125.894 115.496 128.075 113.675C130.256 111.854 132.781 110.49 135.5 109.664C147.732 106.035 158.471 111.05 161.676 121.847L171.266 154.123L168.11 154.857C163.387 155.839 158.574 156.326 153.75 156.308ZM143.369 114.508C141.291 114.53 139.228 114.857 137.245 115.478C135.301 116.081 133.499 117.07 131.947 118.386C130.394 119.701 129.123 121.317 128.209 123.135C127.197 125.008 126.567 127.063 126.355 129.181C126.144 131.299 126.356 133.438 126.978 135.473C132.409 152.394 155.063 150.722 163.527 149.467L155.837 123.576C154.476 118.968 150.472 114.508 143.369 114.508Z" fill="#7B71DE"/>
<path d="M202.963 154.816L199.815 154.082L209.389 121.814C212.602 111.017 223.366 106.002 235.574 109.631C238.292 110.457 240.817 111.821 242.998 113.642C245.18 115.463 246.972 117.704 248.27 120.232C249.657 122.825 250.516 125.667 250.796 128.594C251.076 131.521 250.772 134.475 249.901 137.283C246.37 148.26 236.976 154.751 222.73 156.039C220.879 156.202 219.06 156.276 217.323 156.276C212.499 156.289 207.686 155.8 202.963 154.816ZM215.195 123.551L207.513 149.442C215.97 150.698 238.623 152.37 244.063 135.449C244.688 133.419 244.904 131.286 244.7 129.173C244.496 127.059 243.874 125.007 242.872 123.135C241.955 121.322 240.682 119.712 239.13 118.401C237.578 117.089 235.778 116.104 233.837 115.502C231.851 114.882 229.785 114.555 227.704 114.532C220.602 114.507 216.638 118.968 215.236 123.551H215.195Z" fill="#7B71DE"/>
<path d="M202.376 194.325C201.364 192.31 199.743 190.664 197.744 189.62C190.796 185.616 179.526 185.616 172.579 189.62C170.579 190.664 168.959 192.31 167.947 194.325H167.368V196.886C167.368 199.512 169.105 202.146 172.579 204.152C179.526 208.164 190.796 208.164 197.744 204.152C201.218 202.146 202.955 199.512 202.955 196.886V194.325H202.376Z" fill="#7B71DE"/>
<path opacity="0.3" d="M202.376 194.325C201.364 192.31 199.743 190.664 197.744 189.62C190.796 185.616 179.526 185.616 172.579 189.62C170.579 190.664 168.959 192.31 167.947 194.325H167.368V196.886C167.368 199.512 169.105 202.146 172.579 204.152C179.526 208.164 190.796 208.164 197.744 204.152C201.218 202.146 202.955 199.512 202.955 196.886V194.325H202.376Z" fill="black"/>
<path d="M197.745 186.741C197.419 186.554 197.076 186.382 196.726 186.211C194.866 184.955 190.495 181.555 190.495 177.184C190.495 170.424 202.956 163.37 202.956 163.37L167.075 163.093C167.075 163.093 179.633 170.432 179.633 177.184C179.633 182.737 172.563 186.741 172.563 186.741C165.616 190.753 165.616 197.253 172.563 201.265C179.511 205.277 190.781 205.277 197.729 201.265C204.676 197.253 204.693 190.737 197.745 186.741Z" fill="#7B71DE"/>
<path d="M142.317 100.645V115.641C142.313 124.345 144.267 132.938 148.033 140.785C151.799 148.631 157.281 155.531 164.074 160.973L164.147 161.046L164.962 161.666C165.623 162.147 166.341 162.62 167.115 163.077C172.018 165.716 177.467 167.182 183.033 167.358C184.541 167.439 186.051 167.439 187.559 167.358C193.365 167.064 199.024 165.637 203.469 163.077L204.219 162.62C204.219 162.62 206.127 161.315 206.885 160.63C206.914 160.599 206.947 160.571 206.983 160.549C213.79 155.105 219.284 148.199 223.059 140.344C226.833 132.488 228.792 123.884 228.789 115.168V100.645H142.317Z" fill="#7B71DE"/>
<path d="M162.002 100.645V115.641C161.943 125.933 163.517 136.169 166.667 145.968C168.368 151.282 170.788 156.339 173.859 160.997L173.908 161.071C174.047 161.274 174.185 161.486 174.332 161.69C174.698 162.181 175.09 162.652 175.506 163.101C175.506 163.101 182.332 170.44 182.332 177.192C182.202 180.725 180.844 184.103 178.491 186.741C176.669 188.721 175.658 191.313 175.658 194.003C175.658 196.693 176.669 199.285 178.491 201.265C179.36 202.214 180.417 202.971 181.595 203.489C182.773 204.008 184.046 204.275 185.333 204.275C186.619 204.275 187.892 204.008 189.07 203.489C190.248 202.971 191.305 202.214 192.174 201.265C194 199.287 195.013 196.694 195.013 194.003C195.013 191.312 194 188.719 192.174 186.741C191.995 186.554 191.816 186.383 191.628 186.211C189.53 183.66 188.337 180.485 188.236 177.184C188.236 170.424 195.012 163.37 195.012 163.37L195.298 163.101L195.705 162.644C195.705 162.644 196.741 161.34 197.149 160.655C197.166 160.626 197.185 160.599 197.206 160.573C204.61 149.687 209.063 133.067 209.063 115.192V100.645H162.002Z" fill="#7B71DE"/>
<path opacity="0.1" d="M162.002 100.645V115.641C161.943 125.933 163.517 136.169 166.667 145.968C168.368 151.282 170.788 156.339 173.859 160.997L173.908 161.071C174.047 161.274 174.185 161.486 174.332 161.69C174.698 162.181 175.09 162.652 175.506 163.101C175.506 163.101 182.332 170.44 182.332 177.192C182.202 180.725 180.844 184.103 178.491 186.741C176.669 188.721 175.658 191.313 175.658 194.003C175.658 196.693 176.669 199.285 178.491 201.265C179.36 202.214 180.417 202.971 181.595 203.489C182.773 204.008 184.046 204.275 185.333 204.275C186.619 204.275 187.892 204.008 189.07 203.489C190.248 202.971 191.305 202.214 192.174 201.265C194 199.287 195.013 196.694 195.013 194.003C195.013 191.312 194 188.719 192.174 186.741C191.995 186.554 191.816 186.383 191.628 186.211C189.53 183.66 188.337 180.485 188.236 177.184C188.236 170.424 195.012 163.37 195.012 163.37L195.298 163.101L195.705 162.644C195.705 162.644 196.741 161.34 197.149 160.655C197.166 160.626 197.185 160.599 197.206 160.573C204.61 149.687 209.063 133.067 209.063 115.192V100.645H162.002Z" fill="white"/>
<path d="M185.536 125.598C209.41 125.598 228.764 114.426 228.764 100.645C228.764 86.8634 209.41 75.6914 185.536 75.6914C161.662 75.6914 142.309 86.8634 142.309 100.645C142.309 114.426 161.662 125.598 185.536 125.598Z" fill="#7B71DE"/>
<path opacity="0.1" d="M185.536 125.598C209.41 125.598 228.764 114.426 228.764 100.645C228.764 86.8634 209.41 75.6914 185.536 75.6914C161.662 75.6914 142.309 86.8634 142.309 100.645C142.309 114.426 161.662 125.598 185.536 125.598Z" fill="black"/>
<path d="M185.536 119.498C175.196 119.498 165.149 117.133 158.022 112.974C151.914 109.451 148.416 104.942 148.416 100.612C148.416 96.2817 151.914 91.7721 158.022 88.2493C165.174 84.1231 175.196 81.7256 185.536 81.7256C195.876 81.7256 205.923 84.0904 213.05 88.2493C219.158 91.7721 222.664 96.2817 222.664 100.612C222.664 104.942 219.158 109.451 213.05 112.974C205.906 117.133 195.876 119.498 185.536 119.498Z" fill="#7B71DE"/>
<path opacity="0.3" d="M185.536 119.498C175.196 119.498 165.149 117.133 158.022 112.974C151.914 109.451 148.416 104.942 148.416 100.612C148.416 96.2817 151.914 91.7721 158.022 88.2493C165.174 84.1231 175.196 81.7256 185.536 81.7256C195.876 81.7256 205.923 84.0904 213.05 88.2493C219.158 91.7721 222.664 96.2817 222.664 100.612C222.664 104.942 219.158 109.451 213.05 112.974C205.906 117.133 195.876 119.498 185.536 119.498Z" fill="black"/>
<path d="M39.8459 24.0656C39.8757 24.2484 39.9533 24.42 40.0707 24.5632C40.1881 24.7064 40.3412 24.8161 40.5146 24.8811L44.1516 26.3816C44.4701 26.5129 44.8207 26.546 45.1582 26.4766C45.4958 26.4073 45.8049 26.2387 46.0459 25.9924C46.2869 25.7461 46.4488 25.4334 46.5109 25.0945C46.5729 24.7555 46.5322 24.4058 46.3941 24.0901L45.3911 21.8394C43.9069 18.5776 39.6828 21.6356 39.8459 24.0656Z" fill="#7B71DE"/>
<path d="M333.584 37.9529C333.614 38.1357 333.692 38.3073 333.809 38.4505C333.926 38.5937 334.08 38.7033 334.253 38.7684L337.89 40.2688C338.208 40.4021 338.559 40.4366 338.897 40.3678C339.236 40.2989 339.545 40.13 339.786 39.8829C340.027 39.6358 340.188 39.322 340.249 38.9822C340.309 38.6423 340.265 38.2923 340.124 37.9774L339.113 35.7104C337.645 32.4404 333.421 35.5228 333.584 37.9529Z" fill="#7B71DE"/>
<path d="M165.346 2.19497C165.36 2.30986 165.405 2.41865 165.477 2.50931C165.549 2.59997 165.645 2.66898 165.753 2.70871L167.955 3.61388C168.145 3.70128 168.357 3.72917 168.563 3.6939C168.769 3.65863 168.959 3.56184 169.109 3.41626C169.259 3.27069 169.362 3.08313 169.403 2.87825C169.445 2.67337 169.423 2.46076 169.341 2.26836L168.73 0.89838C167.8 -1.14028 165.264 0.727132 165.346 2.19497Z" fill="#7B71DE"/>
<path d="M169.244 42.3321C169.258 42.447 169.303 42.5558 169.375 42.6465C169.447 42.7371 169.543 42.8061 169.652 42.8459L171.845 43.751C172.038 43.8307 172.25 43.8509 172.454 43.8089C172.658 43.767 172.845 43.6648 172.991 43.5157C173.137 43.3666 173.234 43.1772 173.271 42.9721C173.308 42.767 173.283 42.5554 173.199 42.3648L172.604 40.9948C171.698 38.9643 169.146 40.8561 169.244 42.3321Z" fill="#7B71DE"/>
<path d="M260.674 44.208C260.361 45.2908 259.803 46.2869 259.043 47.1192C259.909 47.6688 260.708 48.3174 261.424 49.0519L264.751 46.475L260.674 44.208Z" fill="#7B71DE"/>
<path d="M207.856 30.2471C207.53 31.3251 206.954 32.3113 206.176 33.1257C207.046 33.673 207.848 34.3218 208.566 35.0583L211.925 32.5141L207.856 30.2471Z" fill="#7B71DE"/>
<path d="M263.267 4.23389C262.938 5.30868 262.363 6.29171 261.587 7.10433C262.454 7.65639 263.255 8.30473 263.976 9.03698L267.328 6.50088L263.267 4.23389Z" fill="#7B71DE"/>
<path opacity="0.7" d="M263.267 4.23389C262.938 5.30868 262.363 6.29171 261.587 7.10433C262.454 7.65639 263.255 8.30473 263.976 9.03698L267.328 6.50088L263.267 4.23389Z" fill="white"/>
<path d="M114.55 4.4863C115.694 5.34842 116.621 6.46526 117.258 7.74816C118.299 6.94878 119.429 6.27287 120.626 5.73396C120.095 4.02149 116.825 3.49959 116.295 1.78711L114.55 4.4863Z" fill="#7B71DE"/>
<path d="M133.265 32.6528C133.102 34.0804 132.611 35.4508 131.83 36.6568C133.046 37.1424 134.201 37.7691 135.271 38.5242C136.478 37.2031 135.271 34.1207 136.478 32.8159L133.265 32.6528Z" fill="#7B71DE"/>
<path d="M34.3564 42.1121C35.5023 42.9741 36.4319 44.0908 37.0719 45.3739C38.1101 44.5747 39.2375 43.8988 40.4317 43.3597C39.9315 41.6527 39.4096 39.9429 38.866 38.2305L34.3564 42.1121Z" fill="#7B71DE"/>
<path opacity="0.5" d="M34.3564 42.1121C35.5023 42.9741 36.4319 44.0908 37.0719 45.3739C38.1101 44.5747 39.2375 43.8988 40.4317 43.3597C39.9315 41.6527 39.4096 39.9429 38.866 38.2305L34.3564 42.1121Z" fill="white"/>
<path d="M109.642 29.3662C109.313 30.441 108.738 31.424 107.962 32.2366C108.83 32.7866 109.632 33.4351 110.351 34.1693L113.703 31.625L109.642 29.3662Z" fill="#7B71DE"/>
<path opacity="0.5" d="M109.642 29.3662C109.313 30.441 108.738 31.424 107.962 32.2366C108.83 32.7866 109.632 33.4351 110.351 34.1693L113.703 31.625L109.642 29.3662Z" fill="white"/>
<path d="M148.792 17.0854C148.464 18.1602 147.889 19.1433 147.112 19.9559C147.979 20.508 148.781 21.1563 149.502 21.8885L152.853 19.3932L148.792 17.0854Z" fill="#7B71DE"/>
<path opacity="0.5" d="M148.792 17.0854C148.464 18.1602 147.889 19.1433 147.112 19.9559C147.979 20.508 148.781 21.1563 149.502 21.8885L152.853 19.3932L148.792 17.0854Z" fill="white"/>
<path d="M243.622 56.562C243.295 57.6401 242.72 58.6262 241.942 59.4406C242.811 59.9901 243.612 60.6387 244.331 61.3733L247.683 58.829L243.622 56.562Z" fill="#7B71DE"/>
<path opacity="0.5" d="M243.622 56.562C243.295 57.6401 242.72 58.6262 241.942 59.4406C242.811 59.9901 243.612 60.6387 244.331 61.3733L247.683 58.829L243.622 56.562Z" fill="white"/>
<path d="M199.652 53.9365C199.487 55.3648 198.993 56.7353 198.209 57.9405C199.425 58.4261 200.58 59.0528 201.65 59.8079C202.857 58.4868 201.65 55.4044 202.857 54.0996L199.652 53.9365Z" fill="#7B71DE"/>
<path opacity="0.5" d="M199.652 53.9365C199.487 55.3648 198.993 56.7353 198.209 57.9405C199.425 58.4261 200.58 59.0528 201.65 59.8079C202.857 58.4868 201.65 55.4044 202.857 54.0996L199.652 53.9365Z" fill="white"/>
<path d="M345.205 8.79199C345.039 10.2202 344.545 11.5907 343.761 12.7959C344.977 13.2815 346.132 13.9083 347.202 14.6633C348.418 13.3423 347.202 10.2598 348.409 8.95509L345.205 8.79199Z" fill="#7B71DE"/>
<path opacity="0.5" d="M345.205 8.79199C345.039 10.2202 344.545 11.5907 343.761 12.7959C344.977 13.2815 346.132 13.9083 347.202 14.6633C348.418 13.3423 347.202 10.2598 348.409 8.95509L345.205 8.79199Z" fill="white"/>
<path d="M230.558 1.84424C230.392 3.26844 229.901 4.63546 229.123 5.84002C230.34 6.32846 231.495 6.95796 232.564 7.71559C233.771 6.39454 232.564 3.30392 233.771 2.00733L230.558 1.84424Z" fill="#7B71DE"/>
<path d="M244.363 28.1103C244.391 28.294 244.467 28.4668 244.585 28.6104C244.703 28.754 244.857 28.863 245.032 28.9258L248.669 30.4344C248.983 30.5534 249.325 30.5785 249.653 30.5066C249.981 30.4346 250.28 30.2687 250.516 30.0292C250.751 29.7897 250.911 29.4868 250.977 29.1576C251.043 28.8285 251.012 28.4872 250.887 28.1755L249.868 25.9167C248.441 22.5978 244.176 25.6802 244.363 28.1103Z" fill="#7B71DE"/>
<path opacity="0.2" d="M244.363 28.1103C244.391 28.294 244.467 28.4668 244.585 28.6104C244.703 28.754 244.857 28.863 245.032 28.9258L248.669 30.4344C248.983 30.5534 249.325 30.5785 249.653 30.5066C249.981 30.4346 250.28 30.2687 250.516 30.0292C250.751 29.7897 250.911 29.4868 250.977 29.1576C251.043 28.8285 251.012 28.4872 250.887 28.1755L249.868 25.9167C248.441 22.5978 244.176 25.6802 244.363 28.1103Z" fill="white"/>
<path d="M189.059 19.8334C189.071 19.948 189.114 20.057 189.185 20.1478C189.256 20.2387 189.351 20.3078 189.459 20.3471L191.661 21.2605C191.853 21.3401 192.065 21.3603 192.27 21.3183C192.474 21.2764 192.661 21.1743 192.806 21.0251C192.952 20.876 193.05 20.6867 193.087 20.4815C193.124 20.2764 193.099 20.0649 193.014 19.8742L192.403 18.5042C191.506 16.4982 188.962 18.3656 189.059 19.8334Z" fill="#7B71DE"/>
<path opacity="0.2" d="M189.059 19.8334C189.071 19.948 189.114 20.057 189.185 20.1478C189.256 20.2387 189.351 20.3078 189.459 20.3471L191.661 21.2605C191.853 21.3401 192.065 21.3603 192.27 21.3183C192.474 21.2764 192.661 21.1743 192.806 21.0251C192.952 20.876 193.05 20.6867 193.087 20.4815C193.124 20.2764 193.099 20.0649 193.014 19.8742L192.403 18.5042C191.506 16.4982 188.962 18.3656 189.059 19.8334Z" fill="white"/>
<path d="M140.295 57.8264C140.307 57.9409 140.35 58.0499 140.421 58.1408C140.492 58.2317 140.587 58.3008 140.695 58.3401L142.897 59.2534C143.089 59.3306 143.3 59.3489 143.502 59.3058C143.705 59.2628 143.89 59.1604 144.034 59.0118C144.179 58.8631 144.276 58.6749 144.313 58.4711C144.349 58.2672 144.325 58.057 144.242 57.8672L143.639 56.4972C142.742 54.4585 140.197 56.3585 140.295 57.8264Z" fill="#7B71DE"/>
<path opacity="0.2" d="M140.295 57.8264C140.307 57.9409 140.35 58.0499 140.421 58.1408C140.492 58.2317 140.587 58.3008 140.695 58.3401L142.897 59.2534C143.089 59.3306 143.3 59.3489 143.502 59.3058C143.705 59.2628 143.89 59.1604 144.034 59.0118C144.179 58.8631 144.276 58.6749 144.313 58.4711C144.349 58.2672 144.325 58.057 144.242 57.8672L143.639 56.4972C142.742 54.4585 140.197 56.3585 140.295 57.8264Z" fill="white"/>
<path d="M20.9268 10.4232C22.0726 11.2852 23.0022 12.4019 23.6423 13.685C24.6801 12.8832 25.8076 12.2045 27.002 11.6627C26.4801 9.9502 23.2101 9.4283 22.68 7.71582L20.9268 10.4232Z" fill="#7B71DE"/>
<path opacity="0.2" d="M20.9268 10.4232C22.0726 11.2852 23.0022 12.4019 23.6423 13.685C24.6801 12.8832 25.8076 12.2045 27.002 11.6627C26.4801 9.9502 23.2101 9.4283 22.68 7.71582L20.9268 10.4232Z" fill="white"/>
<path d="M347.52 43.1313C347.363 44.5577 346.871 45.9267 346.085 47.1271C347.301 47.6156 348.456 48.2451 349.526 49.0027C350.733 47.6816 349.526 44.591 350.733 43.2944L347.52 43.1313Z" fill="#7B71DE"/>
<path opacity="0.2" d="M347.52 43.1313C347.363 44.5577 346.871 45.9267 346.085 47.1271C347.301 47.6156 348.456 48.2451 349.526 49.0027C350.733 47.6816 349.526 44.591 350.733 43.2944L347.52 43.1313Z" fill="white"/>
</svg>
