<svg width="16" height="16" viewBox="0 0 16 16" fill="none" xmlns="http://www.w3.org/2000/svg">
<g clip-path="url(#clip0_199_4013)">
<rect width="16" height="16" rx="8" fill="#FDF4D9"/>
<rect x="4.09375" y="0.09375" width="7.8125" height="7.8125" rx="3.90625" fill="#2B2A2F" stroke="white" stroke-width="0.1875"/>
<mask id="path-3-inside-1_199_4013" fill="white">
<path d="M12 4C12 3.47471 11.8965 2.95457 11.6955 2.46927C11.4945 1.98396 11.1999 1.54301 10.8284 1.17157C10.457 0.800138 10.016 0.505501 9.53073 0.304482C9.04543 0.103463 8.52529 -2.2961e-08 8 0C7.47471 2.2961e-08 6.95457 0.103463 6.46927 0.304482C5.98396 0.505501 5.54301 0.800139 5.17157 1.17157C4.80014 1.54301 4.5055 1.98396 4.30448 2.46927C4.10346 2.95457 4 3.47471 4 4L8 4H12Z"/>
</mask>
<path d="M12 4C12 3.47471 11.8965 2.95457 11.6955 2.46927C11.4945 1.98396 11.1999 1.54301 10.8284 1.17157C10.457 0.800138 10.016 0.505501 9.53073 0.304482C9.04543 0.103463 8.52529 -2.2961e-08 8 0C7.47471 2.2961e-08 6.95457 0.103463 6.46927 0.304482C5.98396 0.505501 5.54301 0.800139 5.17157 1.17157C4.80014 1.54301 4.5055 1.98396 4.30448 2.46927C4.10346 2.95457 4 3.47471 4 4L8 4H12Z" fill="#F2B700" stroke="white" stroke-width="0.375" mask="url(#path-3-inside-1_199_4013)"/>
<rect y="8" width="16" height="16" rx="8" fill="#F2B700"/>
<path d="M7.99963 12.667L10.7789 8.49609C9.91332 8.17542 8.97677 8 7.99963 8C7.02225 8.00005 6.08612 8.17619 5.22034 8.49707L7.99963 12.667Z" fill="#FDF4D9"/>
</g>
<defs>
<clipPath id="clip0_199_4013">
<rect width="16" height="16" rx="8" fill="white"/>
</clipPath>
</defs>
</svg>
