<svg width="20" height="20" viewBox="0 0 20 20" fill="none" xmlns="http://www.w3.org/2000/svg">
<rect width="20" height="20" rx="6" fill="#A688FD"/>
<path fill-rule="evenodd" clip-rule="evenodd" d="M12.7441 5.24408C13.0695 4.91864 13.5972 4.91864 13.9226 5.24408L16.4226 7.74408C16.748 8.06951 16.748 8.59715 16.4226 8.92259C16.0972 9.24803 15.5695 9.24803 15.2441 8.92259L12.7441 6.42259C12.4186 6.09715 12.4186 5.56951 12.7441 5.24408Z" fill="#5D2AAD"/>
<path fill-rule="evenodd" clip-rule="evenodd" d="M16.4227 5.24408C16.7481 5.56951 16.7481 6.09715 16.4227 6.42259L13.9227 8.92259C13.5972 9.24803 13.0696 9.24803 12.7442 8.92259C12.4187 8.59715 12.4187 8.06952 12.7442 7.74408L15.2442 5.24408C15.5696 4.91864 16.0972 4.91864 16.4227 5.24408Z" fill="#5D2AAD"/>
<path fill-rule="evenodd" clip-rule="evenodd" d="M3.57733 5.24408C3.90277 4.91864 4.4304 4.91864 4.75584 5.24408L7.25584 7.74408C7.58128 8.06951 7.58128 8.59715 7.25584 8.92259C6.9304 9.24803 6.40277 9.24803 6.07733 8.92259L3.57733 6.42259C3.25189 6.09715 3.25189 5.56951 3.57733 5.24408Z" fill="#5D2AAD"/>
<path fill-rule="evenodd" clip-rule="evenodd" d="M7.25592 5.24408C7.58136 5.56951 7.58136 6.09715 7.25592 6.42259L4.75592 8.92259C4.43049 9.24803 3.90285 9.24803 3.57741 8.92259C3.25197 8.59715 3.25197 8.06952 3.57741 7.74408L6.07741 5.24408C6.40285 4.91864 6.93049 4.91864 7.25592 5.24408Z" fill="#5D2AAD"/>
<path fill-rule="evenodd" clip-rule="evenodd" d="M6.95627 11.8665C7.82949 11.1964 8.89941 10.8333 10.0001 10.8333C11.1007 10.8333 12.1707 11.1964 13.0439 11.8665C13.9171 12.5365 14.5448 13.476 14.8297 14.5392C14.9488 14.9837 14.685 15.4407 14.2405 15.5598C13.7959 15.6789 13.3389 15.4151 13.2198 14.9705C13.0299 14.2617 12.6114 13.6354 12.0293 13.1887C11.4471 12.742 10.7339 12.4999 10.0001 12.4999C9.2663 12.4999 8.55302 12.742 7.97087 13.1887C7.38873 13.6354 6.97024 14.2617 6.78032 14.9705C6.66121 15.4151 6.20426 15.6789 5.7597 15.5598C5.31515 15.4407 5.05133 14.9837 5.17045 14.5392C5.45532 13.476 6.08305 12.5365 6.95627 11.8665Z" fill="#5D2AAD"/>
</svg>
