<svg width="20" height="20" viewBox="0 0 20 20" fill="none" xmlns="http://www.w3.org/2000/svg">
<path d="M7.83824 16.3285L16.25 7.91675C17.4006 6.76615 17.4006 4.90067 16.25 3.75008C15.0994 2.59949 13.2339 2.59949 12.0833 3.75008L3.67157 12.1618C2.92143 12.912 2.5 13.9294 2.5 14.9903V17.5001H5.00981C6.07068 17.5001 7.08809 17.0787 7.83824 16.3285Z" stroke="#2B2A2F" stroke-width="2" stroke-linejoin="round"/>
<path d="M16.25 3.75008C15.0994 2.59949 13.2339 2.59949 12.0833 3.75008C10.9327 4.90067 10.9327 6.76615 12.0833 7.91675C13.2339 9.06734 15.0994 9.06734 16.25 7.91675C17.4006 6.76615 17.4006 4.90067 16.25 3.75008Z" stroke="#2B2A2F" stroke-width="2" stroke-linejoin="round"/>
</svg>
