<svg width="57" height="57" viewBox="0 0 57 57" fill="none" xmlns="http://www.w3.org/2000/svg">
<path d="M11.8173 14.1805C11.8173 13.9469 11.5481 13.8186 11.3704 13.9701C7.30495 17.4381 4.72705 22.5985 4.72705 28.361C4.72705 38.8032 13.1922 47.2684 23.6344 47.2684H33.0881C43.5304 47.2684 51.9955 38.8032 51.9955 28.361C51.9955 22.5985 49.4176 17.4381 45.3521 13.9701C45.1744 13.8186 44.9052 13.9469 44.9052 14.1805C44.9052 16.353 44.4773 18.5043 43.6459 20.5115C42.8145 22.5188 41.5958 24.3425 40.0596 25.8788C38.5233 27.415 36.6996 28.6337 34.6924 29.4651C32.6851 30.2965 30.5338 30.7244 28.3613 30.7244C26.1887 30.7244 24.0374 30.2965 22.0302 29.4651C20.023 28.6337 18.1992 27.415 16.6629 25.8788C15.1267 24.3425 13.9081 22.5188 13.0766 20.5115C12.2452 18.5043 11.8173 16.353 11.8173 14.1805Z" fill="#8D85FD"/>
<path d="M40.1784 12.952C40.1784 11.6682 39.4055 10.4882 38.1687 10.144C36.5521 9.6941 34.8482 9.45361 33.0881 9.45361H23.6344C21.8744 9.45361 20.1705 9.6941 18.5538 10.144C17.317 10.4882 16.5442 11.6682 16.5442 12.952V14.1805C16.5442 15.7323 16.8498 17.2689 17.4437 18.7027C18.0375 20.1364 18.908 21.4391 20.0053 22.5364C21.1026 23.6337 22.4053 24.5042 23.839 25.098C25.2728 25.6919 26.8094 25.9976 28.3613 25.9976C29.9131 25.9976 31.4498 25.6919 32.8835 25.098C34.3172 24.5042 35.6199 23.6337 36.7172 22.5364C37.8145 21.4391 38.685 20.1364 39.2788 18.7027C39.8727 17.2689 40.1784 15.7323 40.1784 14.1805V12.952Z" fill="#8D85FD"/>
</svg>
