<svg width="24" height="24" viewBox="0 0 24 24" fill="none" xmlns="http://www.w3.org/2000/svg">
<path d="M21.707 20.2928L20.293 21.7069L17.2227 18.6366C16.5243 18.8709 15.7774 18.9999 15 18.9999H9C5.13401 18.9999 2 15.8659 2 11.9999C2.00002 9.66206 3.1462 7.59226 4.90723 6.32117L2.29297 3.70691L3.70703 2.29285L21.707 20.2928ZM6.34668 7.76062C4.93715 8.64501 4.00003 10.2132 4 11.9999C4 14.7613 6.23858 16.9999 9 16.9999H15C15.1875 16.9999 15.3726 16.9888 15.5547 16.9686L14.0303 15.4442C13.4351 15.7962 12.7417 15.9999 12 15.9999C9.79086 15.9999 8 14.209 8 11.9999C8.00001 11.2582 8.2029 10.5641 8.55469 9.96863L6.34668 7.76062ZM15 4.99988C18.866 4.99988 22 8.13392 22 11.9999C22 13.8275 21.2984 15.4905 20.1514 16.7372L18.7354 15.3212C19.5213 14.4379 20 13.2752 20 11.9999C20 9.23849 17.7614 6.99988 15 6.99988H10.4141L8.4375 5.02332C8.62308 5.00856 8.81062 4.99988 9 4.99988H15ZM10.0674 11.4813C10.023 11.6466 10 11.8205 10 11.9999C10 13.1044 10.8954 13.9999 12 13.9999C12.1792 13.9999 12.3526 13.9758 12.5176 13.9315L10.0674 11.4813ZM12 7.99988C14.2091 7.99988 16 9.79077 16 11.9999C16 12.1855 15.9854 12.3679 15.9609 12.5468L11.4521 8.03796C11.6313 8.01342 11.8141 7.99988 12 7.99988Z" fill="#737B98"/>
</svg>
