<svg width="18" height="18" viewBox="0 0 18 18" fill="none" xmlns="http://www.w3.org/2000/svg">
<g clip-path="url(#clip0_73_5959)">
<path d="M17.2708 9.16826C17.2708 8.43081 17.212 7.89266 17.0848 7.33459H8.81201V10.6631H13.6679C13.5701 11.4903 13.0414 12.736 11.8665 13.573L11.8501 13.6845L14.4658 15.7471L14.647 15.7655C16.3113 14.2009 17.2708 11.8988 17.2708 9.16826Z" fill="#4285F4"/>
<path d="M8.8123 17.9382C11.1913 17.9382 13.1885 17.141 14.6473 15.7657L11.8668 13.5732C11.1228 14.1014 10.1242 14.4701 8.8123 14.4701C6.48224 14.4701 4.50462 12.9056 3.79966 10.743L3.69632 10.752L0.976487 12.8946L0.940918 12.9952C2.38986 15.9251 5.3661 17.9382 8.8123 17.9382Z" fill="#34A853"/>
<path d="M3.79955 10.743C3.61354 10.1849 3.50589 9.58692 3.50589 8.96908C3.50589 8.35117 3.61354 7.75325 3.78977 7.19519L3.78484 7.07633L1.03092 4.89929L0.940817 4.94292C0.343639 6.15874 0.000976562 7.52406 0.000976562 8.96908C0.000976562 10.4141 0.343639 11.7793 0.940817 12.9952L3.79955 10.743Z" fill="#FBBC05"/>
<path d="M8.81229 3.46802C10.4668 3.46802 11.5829 4.19551 12.2193 4.80346L14.706 2.33196C13.1788 0.886946 11.1913 0 8.81229 0C5.3661 0 2.38986 2.01305 0.940918 4.94292L3.78987 7.19519C4.50462 5.03265 6.48223 3.46802 8.81229 3.46802Z" fill="#EB4335"/>
</g>
<defs>
<clipPath id="clip0_73_5959">
<rect width="17.28" height="18" fill="white"/>
</clipPath>
</defs>
</svg>
