<svg width="40" height="40" viewBox="0 0 40 40" fill="none" xmlns="http://www.w3.org/2000/svg">
<rect width="40" height="40" rx="12" fill="#9BB167"/>
<path fill-rule="evenodd" clip-rule="evenodd" d="M26.4198 13.7139C27.0265 13.4626 27.6766 13.3333 28.3333 13.3333C28.9899 13.3333 29.64 13.4626 30.2467 13.7139C30.8533 13.9651 31.4045 14.3334 31.8688 14.7977C32.3331 15.262 32.7014 15.8132 32.9526 16.4198C33.2039 17.0265 33.3333 17.6766 33.3333 18.3333C33.3333 19.2537 32.5871 19.9999 31.6666 19.9999C30.7461 19.9999 29.9999 19.2537 29.9999 18.3333C29.9999 18.1144 29.9568 17.8977 29.8731 17.6954C29.7893 17.4932 29.6665 17.3095 29.5118 17.1547C29.357 17 29.1733 16.8772 28.9711 16.7935C28.7688 16.7097 28.5521 16.6666 28.3333 16.6666C28.1144 16.6666 27.8977 16.7097 27.6954 16.7935C27.4932 16.8772 27.3095 17 27.1547 17.1547C27 17.3095 26.8772 17.4932 26.7935 17.6954C26.7097 17.8977 26.6666 18.1144 26.6666 18.3333C26.6666 19.2537 25.9204 19.9999 24.9999 19.9999C24.0794 19.9999 23.3333 19.2537 23.3333 18.3333C23.3333 17.6766 23.4626 17.0265 23.7139 16.4198C23.9651 15.8132 24.3334 15.262 24.7977 14.7977C25.262 14.3334 25.8132 13.9651 26.4198 13.7139Z" fill="#3D4A26"/>
<path fill-rule="evenodd" clip-rule="evenodd" d="M28.4807 23.8802C29.3698 24.1184 29.8974 25.0323 29.6592 25.9214C29.0894 28.0478 27.834 29.9267 26.0875 31.2668C24.3411 32.6069 22.2013 33.3333 19.9999 33.3333C17.7986 33.3333 15.6587 32.6069 13.9123 31.2668C12.1659 29.9267 10.9104 28.0478 10.3407 25.9214C10.1024 25.0323 10.6301 24.1184 11.5192 23.8802C12.4083 23.642 13.3222 24.1696 13.5604 25.0587C13.9402 26.4763 14.7772 27.7289 15.9415 28.6223C17.1058 29.5157 18.5323 29.9999 19.9999 29.9999C21.4675 29.9999 22.894 29.5157 24.0583 28.6223C25.2226 27.7289 26.0596 26.4763 26.4394 25.0587C26.6777 24.1696 27.5915 23.642 28.4807 23.8802Z" fill="#3D4A26"/>
<path fill-rule="evenodd" clip-rule="evenodd" d="M9.75333 13.7139C10.36 13.4626 11.0101 13.3333 11.6667 13.3333C12.3234 13.3333 12.9735 13.4626 13.5802 13.7139C14.1868 13.9651 14.738 14.3334 15.2023 14.7977C15.6666 15.262 16.0349 15.8132 16.2861 16.4198C16.5374 17.0265 16.6667 17.6766 16.6667 18.3333C16.6667 19.2537 15.9206 19.9999 15.0001 19.9999C14.0796 19.9999 13.3334 19.2537 13.3334 18.3333C13.3334 18.1144 13.2903 17.8977 13.2065 17.6954C13.1228 17.4932 13 17.3095 12.8453 17.1547C12.6905 17 12.5068 16.8772 12.3046 16.7935C12.1023 16.7097 11.8856 16.6666 11.6667 16.6666C11.4479 16.6666 11.2312 16.7097 11.0289 16.7935C10.8267 16.8772 10.643 17 10.4882 17.1547C10.3335 17.3095 10.2107 17.4932 10.1269 17.6954C10.0432 17.8977 10.0001 18.1144 10.0001 18.3333C10.0001 19.2537 9.25389 19.9999 8.33341 19.9999C7.41294 19.9999 6.66675 19.2537 6.66675 18.3333C6.66675 17.6766 6.79608 17.0265 7.04735 16.4198C7.29862 15.8132 7.66692 15.262 8.13121 14.7977C8.59551 14.3334 9.1467 13.9651 9.75333 13.7139Z" fill="#3D4A26"/>
</svg>
