<svg width="14" height="14" viewBox="0 0 14 14" fill="none" xmlns="http://www.w3.org/2000/svg">
<path d="M10.3269 14H3.6731C1.63812 14 0 12.3544 0 10.3207V3.67089C0 1.64557 1.63812 0 3.6731 0H10.3269C12.3534 0 14 1.64557 14 3.67089V10.3207C14 12.3544 12.3534 14 10.3269 14Z" fill="white"/>
<path d="M2.15312 5.5585C2.14749 5.54724 2.14467 5.53598 2.14467 5.52472C2.00957 4.77322 3.44503 4.57901 3.90945 4.72255C4.14588 4.79855 4.38231 4.92521 4.57652 5.08564C4.64407 5.15319 5.11693 5.73582 4.77917 5.74427C4.72851 5.74427 4.68629 5.71893 4.64407 5.6936C4.33165 5.47406 4.17121 5.14475 3.78279 5.05186C3.35215 4.95054 2.88774 5.09408 2.58376 5.41495C2.49087 5.51628 2.25444 5.80337 2.15312 5.5585Z" fill="#897DF7"/>
<path d="M11.6525 5.5585C11.6525 5.54724 11.6554 5.53598 11.661 5.52472C11.7961 4.77322 10.3522 4.57901 9.89621 4.72255C9.65978 4.79855 9.4149 4.92521 9.22914 5.08564C9.15314 5.15319 8.68873 5.73582 9.02648 5.74427C9.0687 5.74427 9.11937 5.71893 9.16159 5.6936C9.46557 5.47406 9.63445 5.14475 10.0229 5.05186C10.4451 4.95054 10.9179 5.09408 11.2135 5.41495C11.3063 5.51628 11.5512 5.80337 11.6525 5.5585Z" fill="#897DF7"/>
<path d="M4.1797 8.18624C5.9107 8.78539 7.92035 8.75164 9.65135 8.15248C10.2762 7.93307 10.8757 7.62928 11.3992 7.22421C11.5597 7.10607 11.8637 6.83603 12.0579 7.08075C12.1676 7.22421 12.0748 7.4605 11.9988 7.59552C11.813 7.92463 11.4921 8.16092 11.1881 8.38033C10.7997 8.66725 10.3691 8.8951 9.92156 9.08075C9.1616 9.39299 8.34255 9.55333 7.52349 9.60396C7.21388 9.62646 6.90427 9.63209 6.59466 9.62084C6.58903 9.62084 6.58058 9.62084 6.56932 9.62084C6.13024 9.60958 5.69397 9.56458 5.26052 9.48582C4.43301 9.34236 3.63084 9.06387 2.89622 8.65037C2.81741 8.60536 2.7386 8.55754 2.65979 8.50691C2.39803 8.34657 2.14472 8.18624 1.99273 7.90776C1.94206 7.80649 1.90829 7.68835 1.94206 7.57864C2.00117 7.39299 2.20382 7.32548 2.3727 7.35923C2.65135 7.4183 2.87934 7.57864 3.12421 7.71366C3.38316 7.85994 3.64773 7.98652 3.91794 8.09341C4.008 8.12716 4.09526 8.15811 4.1797 8.18624Z" fill="#897DF7"/>
</svg>
