<svg width="24" height="24" viewBox="0 0 24 24" fill="none" xmlns="http://www.w3.org/2000/svg">
<path d="M11 16C11 15.4477 11.4477 15 12 15C12.5523 15 13 15.4477 13 16C13 16.5523 12.5523 17 12 17C11.4477 17 11 16.5523 11 16Z" fill="#897DF7"/>
<path fill-rule="evenodd" clip-rule="evenodd" d="M20.2928 10.7071L19 9.41422V14C19 17.866 15.8659 21 12 21C8.13396 21 4.99995 17.866 4.99995 14V9.41422L3.70706 10.7071L2.29285 9.2929L8.46442 3.12132C10.417 1.1687 13.5829 1.16871 15.5355 3.12133L21.7071 9.2929L20.2928 10.7071ZM12 13C10.3431 13 9 14.3431 9 16C9 17.6569 10.3431 19 12 19C13.6569 19 15 17.6569 15 16C15 14.3431 13.6569 13 12 13Z" fill="#897DF7"/>
</svg>
