<svg width="57" height="57" viewBox="0 0 57 57" fill="none" xmlns="http://www.w3.org/2000/svg">
<path fill-rule="evenodd" clip-rule="evenodd" d="M30.3572 30.7245C29.0583 30.7245 27.9704 31.6562 27.4758 32.8572C25.7068 37.1536 21.4787 40.1782 16.5442 40.1782C10.0177 40.1782 4.72705 34.8875 4.72705 28.3611C4.72705 21.8346 10.0177 16.5439 16.5442 16.5439C21.357 16.5439 25.4978 19.4211 27.3405 23.5493C27.9514 24.9179 29.202 25.9976 30.7007 25.9976H49.632C50.9373 25.9976 51.9955 27.0558 51.9955 28.3611C51.9955 29.6663 50.9373 30.7245 49.632 30.7245H48.1967C47.6842 30.7245 47.2524 31.1554 47.4485 31.6289C47.5673 31.9157 47.7414 32.1762 47.9609 32.3957C48.1803 32.6151 48.4409 32.7892 48.7276 32.908C49.2012 33.1041 49.632 33.5034 49.632 34.016L49.6321 35.4513C49.6321 36.7566 48.5456 37.8515 47.3121 37.4245C47.1797 37.3786 47.0485 37.3288 46.9187 37.275C46.0585 36.9187 45.2769 36.3964 44.6185 35.738C43.9601 35.0797 43.4378 34.298 43.0815 33.4378C43.0277 33.308 42.9779 33.1768 42.9321 33.0444C42.505 31.8109 41.4836 30.7245 40.1784 30.7245H38.7431C38.2305 30.7245 37.7987 31.1554 37.9948 31.6289C38.1136 31.9157 38.2877 32.1762 38.5072 32.3957C38.7266 32.6151 38.9872 32.7892 39.2739 32.908C39.7475 33.1041 40.1784 33.5034 40.1784 34.016L40.1784 35.4513C40.1784 36.7566 39.0919 37.8515 37.8585 37.4245C37.726 37.3786 37.5948 37.3288 37.465 37.275C36.6048 36.9187 35.8232 36.3964 35.1648 35.738C34.5064 35.0797 33.9841 34.298 33.6278 33.4378C33.621 33.4214 33.6143 33.4049 33.6076 33.3884C33.0409 31.9906 31.8654 30.7245 30.3572 30.7245ZM18.9076 28.3611C18.9076 29.6663 17.8494 30.7245 16.5442 30.7245C15.2389 30.7245 14.1807 29.6663 14.1807 28.3611C14.1807 27.0558 15.2389 25.9976 16.5442 25.9976C17.8494 25.9976 18.9076 27.0558 18.9076 28.3611Z" fill="#8D85FD"/>
</svg>
