<svg width="16" height="16" viewBox="0 0 16 16" fill="none" xmlns="http://www.w3.org/2000/svg">
<path d="M3.99984 6.6665H5.03883C5.61273 6.6665 6.12225 6.29926 6.30374 5.75481L7.06826 3.46124C7.22646 2.98663 7.67061 2.6665 8.17089 2.6665C8.8128 2.6665 9.33317 3.18687 9.33317 3.82878V5.50358C9.33317 6.14585 9.85383 6.6665 10.4961 6.6665C11.9638 6.6665 13.0646 8.00927 12.7768 9.44849L12.4286 11.1895C12.1793 12.4359 11.0848 13.3332 9.81369 13.3332H9.61464C8.56171 13.3332 7.53233 13.0215 6.65624 12.4374L6.50369 12.3357C6.17515 12.1167 5.78914 11.9998 5.39429 11.9998H3.99984C3.26346 11.9998 2.6665 11.4029 2.6665 10.6665V7.99984C2.6665 7.26346 3.26346 6.6665 3.99984 6.6665Z" stroke="#2B2A2F" stroke-width="1.33333" stroke-linejoin="round"/>
<path d="M5.3335 6.6665V11.6861V11.9998" stroke="#2B2A2F" stroke-width="1.33333" stroke-linejoin="round"/>
</svg>
