<svg width="20" height="20" viewBox="0 0 20 20" fill="none" xmlns="http://www.w3.org/2000/svg">
<path d="M9.99996 14.1665C12.3011 14.1665 14.1666 12.301 14.1666 9.99984C14.1666 7.69865 12.3011 5.83317 9.99996 5.83317C7.69877 5.83317 5.83329 7.69865 5.83329 9.99984C5.83329 12.301 7.69877 14.1665 9.99996 14.1665Z" stroke="white" stroke-width="1.66667"/>
<path fill-rule="evenodd" clip-rule="evenodd" d="M9.99996 1.6665C5.39759 1.6665 1.66663 5.39746 1.66663 9.99984C1.66663 14.6022 5.39759 18.3332 9.99996 18.3332C14.6023 18.3332 18.3333 14.6022 18.3333 9.99984C18.3333 5.39746 14.6023 1.6665 9.99996 1.6665ZM3.33329 9.99984C3.33329 6.31794 6.31806 3.33317 9.99996 3.33317C13.6819 3.33317 16.6666 6.31794 16.6666 9.99984C16.6666 13.6817 13.6819 16.6665 9.99996 16.6665C6.31806 16.6665 3.33329 13.6817 3.33329 9.99984Z" stroke="white" stroke-width="1.66667"/>
</svg>
