<svg width="77" height="102" viewBox="0 0 77 102" fill="none" xmlns="http://www.w3.org/2000/svg">
<path d="M44.7211 0.600918C44.8991 0.631485 44.8991 0.631485 45.0806 0.662669C47.1202 1.01866 47.1202 1.01866 47.9506 1.37522C48.2358 1.45227 48.5223 1.52446 48.8098 1.5924C51.1956 2.17792 53.3283 3.12507 55.5047 4.24581C55.7577 4.37435 55.7577 4.37435 56.0158 4.50548C60.6005 6.89356 64.8607 10.4825 67.8936 14.6706C67.9663 14.7692 68.039 14.8679 68.1139 14.9695C70.461 18.1591 72.3584 21.5829 73.4837 25.3975C73.5357 25.5685 73.5877 25.7395 73.6413 25.9157C73.9226 26.8664 74.1741 27.8243 74.4091 28.7874C74.4562 28.9804 74.5033 29.1735 74.5519 29.3723C74.9697 31.3563 75.0502 33.3032 75.0417 35.3218C75.0415 35.4551 75.0413 35.5884 75.041 35.7258C75.0352 37.652 74.9813 39.5287 74.5413 41.4124C74.5085 41.5609 74.5085 41.5609 74.4751 41.7124C73.5546 45.8112 71.5483 49.1489 68.649 52.1393C68.4854 52.312 68.4854 52.312 68.3185 52.4881C67.5785 53.2535 66.7778 53.9147 65.9295 54.5566C65.8348 54.6286 65.7401 54.7005 65.6426 54.7746C61.1158 58.1917 56.0578 60.4654 50.519 61.6576C50.3448 61.696 50.3448 61.696 50.167 61.7353C47.9224 62.1435 45.5297 62.0073 43.258 62.0432C42.7708 62.0511 42.2835 62.0597 41.7963 62.0683C41.5769 62.0714 41.5769 62.0714 41.3531 62.0745C40.5011 62.0898 39.6638 62.1429 38.8169 62.2387C38.0859 62.2828 37.3766 62.1434 36.6571 62.0258C35.1103 61.7907 33.5626 61.5992 32.0065 61.4363C31.7341 61.4076 31.7341 61.4076 31.4561 61.3783C30.7165 61.3008 29.9768 61.2237 29.2368 61.1497C26.5196 60.8777 23.9807 60.4685 21.3882 59.5896C21.2352 59.538 21.0821 59.4863 20.9245 59.4331C19.4118 58.9104 17.9614 58.2826 16.5252 57.5783C16.4031 57.5187 16.281 57.4591 16.1552 57.3977C10.5488 54.6308 5.43521 50.2551 3.25762 44.2449C2.28117 41.3508 1.98598 38.4458 1.98337 35.4068C1.98322 35.2834 1.98307 35.16 1.98291 35.0328C1.9853 32.1578 2.24227 29.368 3.07873 26.6062C3.11534 26.4851 3.15196 26.3641 3.18968 26.2394C5.4602 18.8658 10.0419 11.9308 16.3741 7.41856C16.4658 7.35198 16.5575 7.2854 16.652 7.2168C20.5702 4.38225 25.0506 2.03761 29.8205 1.07305C30.0491 1.02152 30.2774 0.969378 30.5057 0.916659C30.7337 0.864921 30.9617 0.813183 31.1897 0.761444C31.3032 0.73525 31.4166 0.709055 31.5335 0.682066C32.7209 0.414214 33.8445 0.29589 35.0612 0.317636C35.8724 0.340568 35.8724 0.340568 36.6752 0.244418C39.2586 -0.261859 42.158 0.158183 44.7211 0.600918Z" fill="url(#paint0_linear_484_3956)"/>
<path d="M0.963517 47.0026C1.33283 47.3406 1.56111 47.6805 1.80392 48.1168C2.65434 49.5608 3.72705 50.8529 4.86218 52.081C5.08123 52.3191 5.2962 52.5611 5.50665 52.8069C8.33915 56.0941 12.2041 58.34 16.0624 60.2129C16.2162 60.2879 16.37 60.3629 16.5284 60.4402C17.4245 60.8664 18.3192 61.2142 19.2648 61.5143C19.6718 61.649 20.0623 61.8028 20.4574 61.9687C24.2722 63.5233 28.6351 63.6468 32.6911 63.9239C32.6911 64.0236 32.6911 64.1234 32.6911 64.2261C32.5904 64.2775 32.4897 64.3289 32.386 64.3819C29.105 66.1073 24.6974 69.7748 23.475 73.4422C23.3691 74.4629 23.3494 75.3526 23.9784 76.2001C25.0245 77.2952 26.3131 77.7603 27.8033 77.8608C31.0672 77.9171 33.748 76.7709 36.225 74.6733C36.7798 74.2165 37.364 73.8136 37.979 73.4422C38.0707 73.3857 38.1625 73.3292 38.257 73.271C39.1149 72.9266 40.2191 73.0135 41.0986 73.2457C42.1134 73.6991 42.9222 74.4678 43.745 75.1985C44.3494 75.735 44.9729 76.2461 45.5993 76.7566C46.5355 77.5227 47.4552 78.305 48.3665 79.1006C49.0363 79.6844 49.7184 80.2508 50.4086 80.8105C51.7658 81.9192 53.0928 83.0661 54.42 84.2104C54.7063 84.4571 54.9944 84.6997 55.2863 84.9399C56.0213 85.551 56.485 86.0567 56.6284 87.0397C56.5177 87.799 56.13 88.2274 55.5991 88.7583C54.7203 89.1523 53.8818 89.1387 52.9363 89.0038C52.3936 88.7952 52.0119 88.4781 51.5765 88.0973C51.4118 87.9584 51.247 87.8197 51.082 87.6812C50.7148 87.3708 50.3507 87.0571 49.9884 86.7411C49.2729 86.1181 48.5364 85.5217 47.7994 84.9245C46.9847 84.2625 46.1735 83.5975 45.3752 82.9157C44.1615 81.7379 44.1615 81.7379 42.6815 81.0908C42.3638 81.1152 42.3638 81.1152 42.2093 81.2985C42.2032 81.651 42.2029 82.0037 42.2093 82.3561C42.3306 82.4072 42.3306 82.4072 42.4543 82.4594C42.9301 82.7227 43.3213 83.0681 43.7296 83.4232C43.906 83.5745 44.0824 83.7258 44.259 83.877C44.3467 83.9522 44.4343 84.0274 44.5247 84.1049C44.8817 84.4086 45.2448 84.7046 45.6087 85.0001C46.3045 85.5664 46.9899 86.1439 47.6735 86.7249C48.1861 87.1599 48.7033 87.5885 49.2253 88.0123C49.8865 88.5528 50.5453 89.0961 51.1988 89.6459C51.2895 89.7208 51.3801 89.7957 51.4735 89.8728C52.0602 90.3699 52.5331 90.8267 52.7102 91.6041C52.7329 92.4395 52.5555 92.8648 51.9849 93.4743C51.2573 94.0768 50.568 94.0643 49.6478 94.0439C48.9071 93.9615 48.512 93.7077 47.9505 93.2341C47.8015 93.1113 47.6525 92.9884 47.499 92.8617C47.1572 92.5768 46.8185 92.2885 46.4816 91.9977C45.9272 91.5196 45.3608 91.0571 44.7931 90.5949C44.0764 90.0111 43.3642 89.4217 42.6512 88.8334C42.4446 88.663 42.2376 88.493 42.0302 88.3234C41.7964 88.1306 41.5666 87.9329 41.3377 87.7343C40.8691 87.3987 40.5042 87.449 39.9431 87.493C39.8791 88.1475 39.8791 88.1475 40.1821 88.7046C40.2933 88.794 40.4045 88.8834 40.5191 88.9755C40.6447 89.0789 40.7703 89.1823 40.8997 89.2889C41.0328 89.3942 41.1658 89.4996 41.3028 89.6081C41.5547 89.8158 41.8065 90.0236 42.0583 90.2314C42.2754 90.4077 42.4926 90.5841 42.7099 90.7604C43.443 91.3573 44.1716 91.9599 44.9005 92.5619C45.2954 92.888 45.6917 93.2119 46.0903 93.5334C46.174 93.6014 46.2576 93.6695 46.3438 93.7397C46.5655 93.92 46.7879 94.0994 47.0104 94.2787C47.4431 94.6849 47.6129 94.9724 47.7044 95.5559C47.722 96.2217 47.7335 96.7065 47.299 97.2379C46.511 97.9708 45.862 98.1279 44.7921 98.111C43.7767 97.9756 42.9621 97.2589 42.2282 96.5958C42.0431 96.4327 41.8578 96.2698 41.6723 96.1071C41.5831 96.0285 41.494 95.9499 41.4021 95.869C41.0748 95.5846 40.7373 95.3149 40.3963 95.0471C39.772 94.5555 39.173 94.0391 38.5739 93.5174C37.898 92.929 37.2213 92.4136 36.4593 91.9393C36.1253 91.6934 35.8967 91.4229 35.6372 91.1001C34.9481 90.2678 34.1167 89.9371 33.0593 89.797C32.888 89.7845 32.7166 89.7721 32.54 89.7592C32.5396 89.6332 32.5392 89.5072 32.5388 89.3774C32.4973 88.1685 32.3389 87.3214 31.4824 86.4354C30.4353 85.5881 29.3229 85.3378 28.0075 85.2267C27.9763 85.0304 27.9452 84.8341 27.9131 84.6318C27.6698 83.5592 27.1343 82.6816 26.2134 82.0634C24.9305 81.3641 23.6964 81.4135 22.2663 81.4496C22.1915 81.272 22.1167 81.0944 22.0397 80.9114C21.5713 79.9779 20.85 79.4079 19.9528 78.9001C18.724 78.5252 17.446 78.4361 16.223 78.8812C15.7769 79.1392 15.4 79.4474 15.0143 79.7877C14.9009 79.8849 14.7876 79.9821 14.6708 80.0822C14.3798 80.3339 14.0917 80.5881 13.8056 80.8453C12.2921 80.1374 11.0758 78.8119 9.87745 77.6725C9.75203 77.5535 9.6266 77.4345 9.49738 77.3119C8.64442 76.4813 7.8917 75.5875 7.15794 74.6509C7.04752 74.511 6.93709 74.3712 6.82332 74.2271C4.65846 71.4193 2.79475 68.2147 1.71894 64.8304C1.64765 64.6479 1.57637 64.4655 1.50293 64.2774C1.20719 63.4961 1.00589 62.6938 0.802991 61.8843C0.764332 61.7371 0.725673 61.5898 0.685842 61.4381C0.123505 59.2061 -0.00418196 56.9977 0.000359635 54.7078C0.000240956 54.5798 0.000122276 54.4519 0 54.32C0.00277139 51.8147 0.236889 49.4116 0.963517 47.0026Z" fill="#F4C499"/>
<path d="M75.7498 47.0026C75.8496 47.0524 75.9493 47.1023 76.052 47.1536C76.1714 47.5824 76.2726 48.003 76.3636 48.4379C76.3898 48.5555 76.416 48.6731 76.443 48.7943C76.7227 50.0889 76.8314 51.3641 76.8434 52.6871C76.8457 52.8902 76.8457 52.8902 76.8479 53.0975C76.9265 62.0718 74.1695 70.1524 68.1957 76.9171C68.1277 76.9946 68.0597 77.0721 67.9897 77.152C65.6171 79.846 62.8414 82.1408 59.6553 83.818C59.2723 84.0141 59.2723 84.0141 58.9034 84.2795C58.5263 84.4713 58.5263 84.4713 58.1433 84.4554C57.7164 84.3004 57.4487 84.1112 57.1005 83.8197C56.9692 83.7107 56.8379 83.6016 56.7027 83.4892C56.5566 83.3646 56.4105 83.24 56.2601 83.1115C56.1795 83.043 56.0989 82.9744 56.0159 82.9038C55.5716 82.5255 55.1287 82.1457 54.6867 81.7648C53.5919 80.8216 52.4911 79.8858 51.3687 78.9756C50.5947 78.346 49.8426 77.6932 49.0907 77.0376C48.4136 76.4485 47.7244 75.877 47.0257 75.3136C46.6905 75.0358 46.3631 74.7539 46.0377 74.465C43.857 72.5295 41.8143 71.1799 38.8081 71.258C37.1804 71.3699 35.9506 72.3829 34.7805 73.4218C32.6595 75.2956 30.3989 76.1762 27.5953 76.0448C26.7521 75.9608 26.1087 75.6171 25.5122 75.0297C25.2422 74.6824 25.1298 74.4321 25.1669 73.9916C25.5422 72.7559 26.6739 71.7023 27.5329 70.7717C27.8153 70.4651 28.087 70.1527 28.3568 69.8351C29.5121 68.52 30.6595 67.3654 32.1481 66.4351C32.5305 66.2055 32.5305 66.2055 32.8262 65.9671C34.7577 64.5695 37.1937 64.0629 39.4898 63.6218C39.6154 63.5964 39.741 63.5711 39.8704 63.545C41.1091 63.3136 42.3218 63.2703 43.5791 63.2623C43.7922 63.2599 44.0053 63.2573 44.2184 63.2546C44.7733 63.2477 45.3282 63.2424 45.8832 63.2376C46.7759 63.2297 47.6686 63.2199 48.5613 63.2092C48.8719 63.2057 49.1824 63.2033 49.493 63.2009C49.7746 63.1979 49.7746 63.1979 50.0618 63.1947C50.2271 63.1933 50.3924 63.1919 50.5627 63.1904C50.9868 63.1859 50.9868 63.1859 51.4254 63.0174C51.7713 62.9736 52.1176 62.9332 52.4641 62.8947C53.5741 62.7588 54.5975 62.4744 55.6557 62.1109C55.7579 62.0776 55.8601 62.0443 55.9654 62.01C61.2301 60.2921 65.862 57.62 70.0087 53.9524C70.1575 53.8229 70.3062 53.6934 70.4595 53.5599C72.3933 51.8365 73.8808 49.901 75.2757 47.7233C75.4312 47.4814 75.5903 47.2418 75.7498 47.0026Z" fill="#897DF7"/>
<path d="M75.7498 47.0026C75.8496 47.0524 75.9493 47.1023 76.052 47.1536C76.1714 47.5824 76.2726 48.003 76.3636 48.4379C76.3898 48.5555 76.416 48.6731 76.443 48.7943C76.7227 50.0889 76.8314 51.3641 76.8434 52.6871C76.8457 52.8902 76.8457 52.8902 76.8479 53.0975C76.9265 62.0718 74.1695 70.1524 68.1957 76.9171C68.1277 76.9946 68.0597 77.0721 67.9897 77.152C65.6171 79.846 62.8414 82.1408 59.6553 83.818C59.2723 84.0141 59.2723 84.0141 58.9034 84.2795C58.5263 84.4713 58.5263 84.4713 58.1433 84.4554C57.7164 84.3004 57.4487 84.1112 57.1005 83.8197C56.9692 83.7107 56.8379 83.6016 56.7027 83.4892C56.5566 83.3646 56.4105 83.24 56.2601 83.1115C56.1795 83.043 56.0989 82.9744 56.0159 82.9038C55.5716 82.5255 55.1287 82.1457 54.6867 81.7648C53.5919 80.8216 52.4911 79.8858 51.3687 78.9756C50.5947 78.346 49.8426 77.6932 49.0907 77.0376C48.4136 76.4485 47.7244 75.877 47.0257 75.3136C46.6905 75.0358 46.3631 74.7539 46.0377 74.465C43.857 72.5295 41.8143 71.1799 38.8081 71.258C37.1804 71.3699 35.9506 72.3829 34.7805 73.4218C32.6595 75.2956 30.3989 76.1762 27.5953 76.0448C26.7521 75.9608 26.1087 75.6171 25.5122 75.0297C25.2422 74.6824 25.1298 74.4321 25.1669 73.9916C25.5422 72.7559 26.6739 71.7023 27.5329 70.7717C27.8153 70.4651 28.087 70.1527 28.3568 69.8351C29.5121 68.52 30.6595 67.3654 32.1481 66.4351C32.5305 66.2055 32.5305 66.2055 32.8262 65.9671C34.7577 64.5695 37.1937 64.0629 39.4898 63.6218C39.6154 63.5964 39.741 63.5711 39.8704 63.545C41.1091 63.3136 42.3218 63.2703 43.5791 63.2623C43.7922 63.2599 44.0053 63.2573 44.2184 63.2546C44.7733 63.2477 45.3282 63.2424 45.8832 63.2376C46.7759 63.2297 47.6686 63.2199 48.5613 63.2092C48.8719 63.2057 49.1824 63.2033 49.493 63.2009C49.7746 63.1979 49.7746 63.1979 50.0618 63.1947C50.2271 63.1933 50.3924 63.1919 50.5627 63.1904C50.9868 63.1859 50.9868 63.1859 51.4254 63.0174C51.7713 62.9736 52.1176 62.9332 52.4641 62.8947C53.5741 62.7588 54.5975 62.4744 55.6557 62.1109C55.7579 62.0776 55.8601 62.0443 55.9654 62.01C61.2301 60.2921 65.862 57.62 70.0087 53.9524C70.1575 53.8229 70.3062 53.6934 70.4595 53.5599C72.3933 51.8365 73.8808 49.901 75.2757 47.7233C75.4312 47.4814 75.5903 47.2418 75.7498 47.0026Z" fill="url(#paint1_linear_484_3956)"/>
<path d="M75.7498 47.0026C75.8496 47.0524 75.9493 47.1023 76.052 47.1536C76.1714 47.5824 76.2726 48.003 76.3636 48.4379C76.3898 48.5555 76.416 48.6731 76.443 48.7943C76.7227 50.0889 76.8314 51.3641 76.8434 52.6871C76.8457 52.8902 76.8457 52.8902 76.8479 53.0975C76.9265 62.0718 74.1695 70.1524 68.1957 76.9171C68.1277 76.9946 68.0597 77.0721 67.9897 77.152C65.6171 79.846 62.8414 82.1408 59.6553 83.818C59.2723 84.0141 59.2723 84.0141 58.9034 84.2795C58.5263 84.4713 58.5263 84.4713 58.1433 84.4554C57.7164 84.3004 57.4487 84.1112 57.1005 83.8197C56.9692 83.7107 56.8379 83.6016 56.7027 83.4892C56.5566 83.3646 56.4105 83.24 56.2601 83.1115C56.1795 83.043 56.0989 82.9744 56.0159 82.9038C55.5716 82.5255 55.1287 82.1457 54.6867 81.7648C53.5919 80.8216 52.4911 79.8858 51.3687 78.9756C50.5947 78.346 49.8426 77.6932 49.0907 77.0376C48.4136 76.4485 47.7244 75.877 47.0257 75.3136C46.6905 75.0358 46.3631 74.7539 46.0377 74.465C43.857 72.5295 41.8143 71.1799 38.8081 71.258C37.1804 71.3699 35.9506 72.3829 34.7805 73.4218C32.6595 75.2956 30.3989 76.1762 27.5953 76.0448C26.7521 75.9608 26.1087 75.6171 25.5122 75.0297C25.2422 74.6824 25.1298 74.4321 25.1669 73.9916C25.5422 72.7559 26.6739 71.7023 27.5329 70.7717C27.8153 70.4651 28.087 70.1527 28.3568 69.8351C29.5121 68.52 30.6595 67.3654 32.1481 66.4351C32.5305 66.2055 32.5305 66.2055 32.8262 65.9671C34.7577 64.5695 37.1937 64.0629 39.4898 63.6218C39.6154 63.5964 39.741 63.5711 39.8704 63.545C41.1091 63.3136 42.3218 63.2703 43.5791 63.2623C43.7922 63.2599 44.0053 63.2573 44.2184 63.2546C44.7733 63.2477 45.3282 63.2424 45.8832 63.2376C46.7759 63.2297 47.6686 63.2199 48.5613 63.2092C48.8719 63.2057 49.1824 63.2033 49.493 63.2009C49.7746 63.1979 49.7746 63.1979 50.0618 63.1947C50.2271 63.1933 50.3924 63.1919 50.5627 63.1904C50.9868 63.1859 50.9868 63.1859 51.4254 63.0174C51.7713 62.9736 52.1176 62.9332 52.4641 62.8947C53.5741 62.7588 54.5975 62.4744 55.6557 62.1109C55.7579 62.0776 55.8601 62.0443 55.9654 62.01C61.2301 60.2921 65.862 57.62 70.0087 53.9524C70.1575 53.8229 70.3062 53.6934 70.4595 53.5599C72.3933 51.8365 73.8808 49.901 75.2757 47.7233C75.4312 47.4814 75.5903 47.2418 75.7498 47.0026Z" fill="url(#paint2_linear_484_3956)"/>
<path d="M75.7498 47.0026C75.8496 47.0524 75.9493 47.1023 76.052 47.1536C76.1714 47.5824 76.2726 48.003 76.3636 48.4379C76.3898 48.5555 76.416 48.6731 76.443 48.7943C76.7227 50.0889 76.8314 51.3641 76.8434 52.6871C76.8457 52.8902 76.8457 52.8902 76.8479 53.0975C76.9265 62.0718 74.1695 70.1524 68.1957 76.9171C68.1277 76.9946 68.0597 77.0721 67.9897 77.152C65.6171 79.846 62.8414 82.1408 59.6553 83.818C59.2723 84.0141 59.2723 84.0141 58.9034 84.2795C58.5263 84.4713 58.5263 84.4713 58.1433 84.4554C57.7164 84.3004 57.4487 84.1112 57.1005 83.8197C56.9692 83.7107 56.8379 83.6016 56.7027 83.4892C56.5566 83.3646 56.4105 83.24 56.2601 83.1115C56.1795 83.043 56.0989 82.9744 56.0159 82.9038C55.5716 82.5255 55.1287 82.1457 54.6867 81.7648C53.5919 80.8216 52.4911 79.8858 51.3687 78.9756C50.5947 78.346 49.8426 77.6932 49.0907 77.0376C48.4136 76.4485 47.7244 75.877 47.0257 75.3136C46.6905 75.0358 46.3631 74.7539 46.0377 74.465C43.857 72.5295 41.8143 71.1799 38.8081 71.258C37.1804 71.3699 35.9506 72.3829 34.7805 73.4218C32.6595 75.2956 30.3989 76.1762 27.5953 76.0448C26.7521 75.9608 26.1087 75.6171 25.5122 75.0297C25.2422 74.6824 25.1298 74.4321 25.1669 73.9916C25.5422 72.7559 26.6739 71.7023 27.5329 70.7717C27.8153 70.4651 28.087 70.1527 28.3568 69.8351C29.5121 68.52 30.6595 67.3654 32.1481 66.4351C32.5305 66.2055 32.5305 66.2055 32.8262 65.9671C34.7577 64.5695 37.1937 64.0629 39.4898 63.6218C39.6154 63.5964 39.741 63.5711 39.8704 63.545C41.1091 63.3136 42.3218 63.2703 43.5791 63.2623C43.7922 63.2599 44.0053 63.2573 44.2184 63.2546C44.7733 63.2477 45.3282 63.2424 45.8832 63.2376C46.7759 63.2297 47.6686 63.2199 48.5613 63.2092C48.8719 63.2057 49.1824 63.2033 49.493 63.2009C49.7746 63.1979 49.7746 63.1979 50.0618 63.1947C50.2271 63.1933 50.3924 63.1919 50.5627 63.1904C50.9868 63.1859 50.9868 63.1859 51.4254 63.0174C51.7713 62.9736 52.1176 62.9332 52.4641 62.8947C53.5741 62.7588 54.5975 62.4744 55.6557 62.1109C55.7579 62.0776 55.8601 62.0443 55.9654 62.01C61.2301 60.2921 65.862 57.62 70.0087 53.9524C70.1575 53.8229 70.3062 53.6934 70.4595 53.5599C72.3933 51.8365 73.8808 49.901 75.2757 47.7233C75.4312 47.4814 75.5903 47.2418 75.7498 47.0026Z" fill="url(#paint3_linear_484_3956)"/>
<path d="M56.2318 39.3917C57.5802 39.7739 58.8342 40.5071 59.584 41.7146C59.7634 42.2812 59.7634 42.2812 59.7351 42.7722C59.499 43.1405 59.499 43.1405 59.1307 43.3766C58.6869 43.4521 58.6869 43.4521 58.2242 43.3766C57.8087 43.0744 57.8087 43.0744 57.4688 42.7722C57.3691 42.7722 57.2694 42.7722 57.1666 42.7722C56.9785 42.9884 56.8008 43.2138 56.6284 43.4427C52.8952 48.1995 47.1341 50.4217 41.333 51.322C36.5897 51.8779 31.6795 51.0704 27.4032 48.9666C27.3078 48.9203 27.2125 48.874 27.1143 48.8263C24.4197 47.5016 21.4417 45.54 19.849 42.9233C19.849 42.8236 19.849 42.7239 19.849 42.6211C19.7722 42.6866 19.6955 42.752 19.6165 42.8194C18.7717 43.5029 18.7717 43.5029 18.1398 43.6221C17.7338 43.5276 17.7338 43.5276 17.4505 43.2821C17.2167 42.7886 17.176 42.5603 17.2806 42.0168C18.0731 40.7824 19.4663 39.7678 20.9066 39.4484C22.1815 39.3095 22.1815 39.3095 22.7603 39.6502C23.0217 39.9016 23.0217 39.9016 23.0878 40.3549C23.0217 40.8081 23.0217 40.8081 22.8518 41.082C22.4677 41.3252 22.1092 41.3628 21.662 41.4125C21.9103 41.6686 22.1618 41.9192 22.4174 42.1679C22.4947 42.2446 22.572 42.3214 22.6517 42.4004C26.8912 46.3673 33.4837 48.1076 39.1658 47.9427C40.0784 47.9005 40.9795 47.8035 41.8816 47.6592C42.1091 47.6229 42.3369 47.5883 42.5649 47.5552C47.1175 46.8832 51.7778 44.8778 55.0515 41.5635C55.1013 41.4638 55.1512 41.3641 55.2025 41.2614C55.0872 41.2458 54.972 41.2302 54.8532 41.2142C54.4069 41.1 54.2451 41.0405 53.9939 40.657C53.9356 40.1905 53.9215 39.8862 54.145 39.4673C54.789 39.105 55.535 39.2775 56.2318 39.3917Z" fill="white"/>
<path d="M52.29 21.4221C53.6097 22.1827 54.364 23.2564 54.872 24.6852C55.3559 26.5368 55.0262 28.1874 54.0918 29.8374C53.3735 30.8908 52.3443 31.5565 51.1233 31.8941C49.6517 32.0774 48.5373 31.8884 47.3462 30.9876C46.3898 30.1311 45.6359 28.7835 45.4995 27.4976C45.4044 25.5734 45.4967 24.1464 46.7796 22.6308C48.2971 21.0382 50.2054 20.4491 52.29 21.4221Z" fill="white"/>
<path d="M29.3578 21.3844C30.8287 22.3242 31.6663 23.553 32.0868 25.2465C32.3157 27.1266 31.8682 28.8712 30.727 30.3833C29.8681 31.3276 29.0479 31.8132 27.7827 31.952C26.4553 32.0134 25.5527 31.8594 24.5326 30.9877C23.124 29.6661 22.5794 28.1503 22.5118 26.2474C22.5397 24.7542 23.0425 23.4584 24.0793 22.3759C25.5905 21.0249 27.4347 20.4135 29.3578 21.3844Z" fill="white"/>
<path d="M25.0141 83.5176C25.671 84.0577 26.0088 84.3499 26.1189 85.2173C26.1308 85.9419 25.6987 86.462 25.218 86.9722C24.9659 87.2175 24.7085 87.4553 24.4476 87.6913C24.3545 87.7766 24.2613 87.8619 24.1654 87.9498C23.4712 88.5809 22.7582 89.1825 22.0255 89.7687C21.6985 90.032 21.382 90.3032 21.0671 90.5807C20.2589 91.2569 19.6852 91.3525 18.6391 91.3397C17.9502 91.2336 17.5574 90.8981 17.1294 90.3635C16.8412 89.787 16.8737 89.176 16.9784 88.5505C17.5886 87.383 19.0073 86.4766 20.0013 85.6356C20.2988 85.3807 20.5911 85.121 20.8823 84.859C20.9753 84.7764 21.0683 84.6938 21.1641 84.6087C21.3397 84.4525 21.5142 84.2951 21.6874 84.1362C22.6216 83.3144 23.8661 82.9098 25.0141 83.5176Z" fill="#897DF7"/>
<path d="M25.0141 83.5176C25.671 84.0577 26.0088 84.3499 26.1189 85.2173C26.1308 85.9419 25.6987 86.462 25.218 86.9722C24.9659 87.2175 24.7085 87.4553 24.4476 87.6913C24.3545 87.7766 24.2613 87.8619 24.1654 87.9498C23.4712 88.5809 22.7582 89.1825 22.0255 89.7687C21.6985 90.032 21.382 90.3032 21.0671 90.5807C20.2589 91.2569 19.6852 91.3525 18.6391 91.3397C17.9502 91.2336 17.5574 90.8981 17.1294 90.3635C16.8412 89.787 16.8737 89.176 16.9784 88.5505C17.5886 87.383 19.0073 86.4766 20.0013 85.6356C20.2988 85.3807 20.5911 85.121 20.8823 84.859C20.9753 84.7764 21.0683 84.6938 21.1641 84.6087C21.3397 84.4525 21.5142 84.2951 21.6874 84.1362C22.6216 83.3144 23.8661 82.9098 25.0141 83.5176Z" fill="url(#paint4_linear_484_3956)"/>
<path d="M25.0141 83.5176C25.671 84.0577 26.0088 84.3499 26.1189 85.2173C26.1308 85.9419 25.6987 86.462 25.218 86.9722C24.9659 87.2175 24.7085 87.4553 24.4476 87.6913C24.3545 87.7766 24.2613 87.8619 24.1654 87.9498C23.4712 88.5809 22.7582 89.1825 22.0255 89.7687C21.6985 90.032 21.382 90.3032 21.0671 90.5807C20.2589 91.2569 19.6852 91.3525 18.6391 91.3397C17.9502 91.2336 17.5574 90.8981 17.1294 90.3635C16.8412 89.787 16.8737 89.176 16.9784 88.5505C17.5886 87.383 19.0073 86.4766 20.0013 85.6356C20.2988 85.3807 20.5911 85.121 20.8823 84.859C20.9753 84.7764 21.0683 84.6938 21.1641 84.6087C21.3397 84.4525 21.5142 84.2951 21.6874 84.1362C22.6216 83.3144 23.8661 82.9098 25.0141 83.5176Z" fill="url(#paint5_linear_484_3956)"/>
<path d="M29.7355 87.4645C29.9271 87.6281 29.9271 87.6281 30.1226 87.795C30.2041 87.8601 30.2855 87.9251 30.3693 87.9921C30.6566 88.3484 30.6414 88.5978 30.642 89.0509C30.6449 89.1905 30.6478 89.3302 30.6508 89.4741C30.4775 90.483 29.7319 91.0714 28.9801 91.6854C28.7902 91.8437 28.6006 92.0023 28.4111 92.1611C28.3174 92.2395 28.2236 92.318 28.127 92.3988C27.7329 92.7351 27.3566 93.0879 26.9782 93.4418C25.9839 94.3525 25.0905 95.1185 23.7205 95.2453C22.8711 95.1721 22.4538 94.8109 21.9075 94.1783C21.6156 93.5946 21.502 93.1185 21.662 92.4786C22.0564 91.795 22.5219 91.2951 23.1067 90.7695C23.1858 90.6981 23.265 90.6268 23.3465 90.5533C23.9961 89.9724 24.6672 89.4197 25.347 88.8744C25.8509 88.4603 26.3282 88.0203 26.8029 87.5731C27.6065 86.9494 28.8764 87.0116 29.7355 87.4645Z" fill="#897DF7"/>
<path d="M29.7355 87.4645C29.9271 87.6281 29.9271 87.6281 30.1226 87.795C30.2041 87.8601 30.2855 87.9251 30.3693 87.9921C30.6566 88.3484 30.6414 88.5978 30.642 89.0509C30.6449 89.1905 30.6478 89.3302 30.6508 89.4741C30.4775 90.483 29.7319 91.0714 28.9801 91.6854C28.7902 91.8437 28.6006 92.0023 28.4111 92.1611C28.3174 92.2395 28.2236 92.318 28.127 92.3988C27.7329 92.7351 27.3566 93.0879 26.9782 93.4418C25.9839 94.3525 25.0905 95.1185 23.7205 95.2453C22.8711 95.1721 22.4538 94.8109 21.9075 94.1783C21.6156 93.5946 21.502 93.1185 21.662 92.4786C22.0564 91.795 22.5219 91.2951 23.1067 90.7695C23.1858 90.6981 23.265 90.6268 23.3465 90.5533C23.9961 89.9724 24.6672 89.4197 25.347 88.8744C25.8509 88.4603 26.3282 88.0203 26.8029 87.5731C27.6065 86.9494 28.8764 87.0116 29.7355 87.4645Z" fill="url(#paint6_linear_484_3956)"/>
<path d="M29.7355 87.4645C29.9271 87.6281 29.9271 87.6281 30.1226 87.795C30.2041 87.8601 30.2855 87.9251 30.3693 87.9921C30.6566 88.3484 30.6414 88.5978 30.642 89.0509C30.6449 89.1905 30.6478 89.3302 30.6508 89.4741C30.4775 90.483 29.7319 91.0714 28.9801 91.6854C28.7902 91.8437 28.6006 92.0023 28.4111 92.1611C28.3174 92.2395 28.2236 92.318 28.127 92.3988C27.7329 92.7351 27.3566 93.0879 26.9782 93.4418C25.9839 94.3525 25.0905 95.1185 23.7205 95.2453C22.8711 95.1721 22.4538 94.8109 21.9075 94.1783C21.6156 93.5946 21.502 93.1185 21.662 92.4786C22.0564 91.795 22.5219 91.2951 23.1067 90.7695C23.1858 90.6981 23.265 90.6268 23.3465 90.5533C23.9961 89.9724 24.6672 89.4197 25.347 88.8744C25.8509 88.4603 26.3282 88.0203 26.8029 87.5731C27.6065 86.9494 28.8764 87.0116 29.7355 87.4645Z" fill="url(#paint7_linear_484_3956)"/>
<path d="M33.2954 91.5721C33.8688 91.9144 34.3537 92.3288 34.6552 92.9319C34.7389 93.7547 34.7117 94.2488 34.1712 94.9213C33.7156 95.3859 33.2091 95.7819 32.6982 96.1837C32.0508 96.7099 31.4538 97.283 30.8515 97.8598C30.0518 98.5345 29.399 98.7611 28.3705 98.7256C27.8164 98.6454 27.5083 98.4462 27.101 98.0687C26.6365 97.3875 26.5113 96.7573 26.6477 95.9535C27.0286 95.1011 27.7372 94.6259 28.4584 94.0561C29.0587 93.5701 29.6196 93.0468 30.1823 92.5181C31.1905 91.643 31.9612 91.3053 33.2954 91.5721Z" fill="#897DF7"/>
<path d="M33.2954 91.5721C33.8688 91.9144 34.3537 92.3288 34.6552 92.9319C34.7389 93.7547 34.7117 94.2488 34.1712 94.9213C33.7156 95.3859 33.2091 95.7819 32.6982 96.1837C32.0508 96.7099 31.4538 97.283 30.8515 97.8598C30.0518 98.5345 29.399 98.7611 28.3705 98.7256C27.8164 98.6454 27.5083 98.4462 27.101 98.0687C26.6365 97.3875 26.5113 96.7573 26.6477 95.9535C27.0286 95.1011 27.7372 94.6259 28.4584 94.0561C29.0587 93.5701 29.6196 93.0468 30.1823 92.5181C31.1905 91.643 31.9612 91.3053 33.2954 91.5721Z" fill="url(#paint8_linear_484_3956)"/>
<path d="M33.2954 91.5721C33.8688 91.9144 34.3537 92.3288 34.6552 92.9319C34.7389 93.7547 34.7117 94.2488 34.1712 94.9213C33.7156 95.3859 33.2091 95.7819 32.6982 96.1837C32.0508 96.7099 31.4538 97.283 30.8515 97.8598C30.0518 98.5345 29.399 98.7611 28.3705 98.7256C27.8164 98.6454 27.5083 98.4462 27.101 98.0687C26.6365 97.3875 26.5113 96.7573 26.6477 95.9535C27.0286 95.1011 27.7372 94.6259 28.4584 94.0561C29.0587 93.5701 29.6196 93.0468 30.1823 92.5181C31.1905 91.643 31.9612 91.3053 33.2954 91.5721Z" fill="url(#paint9_linear_484_3956)"/>
<path d="M19.7545 80.8924C20.1749 81.3228 20.4331 81.6193 20.4763 82.2274C20.3733 83.2944 19.982 83.8011 19.1803 84.4789C18.8968 84.711 18.6117 84.9411 18.3251 85.1694C17.772 85.6209 17.2528 86.1037 16.7346 86.5947C16.0784 87.1295 15.4384 87.445 14.5757 87.4168C13.9633 87.2719 13.4964 86.8649 13.0502 86.4353C12.7439 85.8228 12.7967 85.1344 12.8991 84.4712C13.1554 83.9645 13.5342 83.6361 13.9567 83.2626C14.0418 83.1865 14.1269 83.1104 14.2146 83.032C14.7876 82.5214 15.3672 82.0192 15.9544 81.5249C16.1305 81.3764 16.3057 81.2266 16.4796 81.0755C17.4166 80.2695 18.7376 80.0863 19.7545 80.8924Z" fill="#897DF7"/>
<path d="M19.7545 80.8924C20.1749 81.3228 20.4331 81.6193 20.4763 82.2274C20.3733 83.2944 19.982 83.8011 19.1803 84.4789C18.8968 84.711 18.6117 84.9411 18.3251 85.1694C17.772 85.6209 17.2528 86.1037 16.7346 86.5947C16.0784 87.1295 15.4384 87.445 14.5757 87.4168C13.9633 87.2719 13.4964 86.8649 13.0502 86.4353C12.7439 85.8228 12.7967 85.1344 12.8991 84.4712C13.1554 83.9645 13.5342 83.6361 13.9567 83.2626C14.0418 83.1865 14.1269 83.1104 14.2146 83.032C14.7876 82.5214 15.3672 82.0192 15.9544 81.5249C16.1305 81.3764 16.3057 81.2266 16.4796 81.0755C17.4166 80.2695 18.7376 80.0863 19.7545 80.8924Z" fill="url(#paint10_linear_484_3956)"/>
<path d="M19.7545 80.8924C20.1749 81.3228 20.4331 81.6193 20.4763 82.2274C20.3733 83.2944 19.982 83.8011 19.1803 84.4789C18.8968 84.711 18.6117 84.9411 18.3251 85.1694C17.772 85.6209 17.2528 86.1037 16.7346 86.5947C16.0784 87.1295 15.4384 87.445 14.5757 87.4168C13.9633 87.2719 13.4964 86.8649 13.0502 86.4353C12.7439 85.8228 12.7967 85.1344 12.8991 84.4712C13.1554 83.9645 13.5342 83.6361 13.9567 83.2626C14.0418 83.1865 14.1269 83.1104 14.2146 83.032C14.7876 82.5214 15.3672 82.0192 15.9544 81.5249C16.1305 81.3764 16.3057 81.2266 16.4796 81.0755C17.4166 80.2695 18.7376 80.0863 19.7545 80.8924Z" fill="url(#paint11_linear_484_3956)"/>
<path d="M36.6192 94.1406C37.4224 94.3789 37.9836 94.9042 38.6116 95.4343C38.7252 95.5292 38.8387 95.6241 38.9557 95.7219C39.2861 95.9992 39.6149 96.2781 39.943 96.558C40.0726 96.6681 40.0726 96.6681 40.2048 96.7805C41.7144 98.0724 41.7144 98.0724 41.8033 99.032C41.7414 99.7499 41.5513 100.238 41.0384 100.751C40.1025 101.27 39.1575 101.357 38.13 101.09C37.2842 100.673 36.6202 100.131 35.9204 99.5041C35.7266 99.3324 35.5326 99.1609 35.3385 98.9895C35.2479 98.9092 35.1573 98.829 35.064 98.7463C34.7344 98.4596 34.3949 98.1867 34.0508 97.9177C34.221 97.407 34.3611 97.2971 34.7684 96.964C35.749 96.1237 36.275 95.3998 36.6192 94.1406Z" fill="#F4C499"/>
<path d="M38.2717 0.00602458C38.4615 0.00670623 38.6513 0.00738787 38.8468 0.00809018C39.313 0.00986258 39.7791 0.0123427 40.2452 0.0154673C40.2452 0.0653249 40.2452 0.115182 40.2452 0.166551C40.1531 0.170336 40.0609 0.174122 39.966 0.178022C39.546 0.19562 39.126 0.214127 38.7061 0.23265C38.5611 0.23859 38.4161 0.24453 38.2667 0.25065C38.0556 0.260144 38.0556 0.260144 37.8403 0.269831C37.7113 0.275369 37.5824 0.280907 37.4495 0.286614C37.0626 0.318447 36.6967 0.389222 36.3171 0.468718C36.1001 0.478186 35.8827 0.481842 35.6655 0.478161C35.3897 0.473487 35.3897 0.473487 35.1084 0.468718C35.1084 0.369003 35.1084 0.269288 35.1084 0.166551C36.1588 -0.0316587 37.2061 -0.00123961 38.2717 0.00602458Z" fill="#BFECFA"/>
<defs>
<linearGradient id="paint0_linear_484_3956" x1="38.5126" y1="62.2471" x2="43.3006" y2="-32.2917" gradientUnits="userSpaceOnUse">
<stop offset="0.299989" stop-color="#897DF7"/>
<stop offset="1" stop-color="#504991"/>
</linearGradient>
<linearGradient id="paint1_linear_484_3956" x1="51.0048" y1="47.0026" x2="51.0048" y2="84.4617" gradientUnits="userSpaceOnUse">
<stop stop-color="#897DF7"/>
<stop offset="1" stop-color="#504991"/>
</linearGradient>
<linearGradient id="paint2_linear_484_3956" x1="51.0048" y1="84.4617" x2="51.0048" y2="37.1826" gradientUnits="userSpaceOnUse">
<stop stop-color="#897DF7"/>
<stop offset="1" stop-color="#504991"/>
</linearGradient>
<linearGradient id="paint3_linear_484_3956" x1="51.0048" y1="84.4617" x2="53.4584" y2="27.5176" gradientUnits="userSpaceOnUse">
<stop offset="0.299989" stop-color="#897DF7"/>
<stop offset="1" stop-color="#504991"/>
</linearGradient>
<linearGradient id="paint4_linear_484_3956" x1="21.5111" y1="83.2252" x2="21.5111" y2="91.3407" gradientUnits="userSpaceOnUse">
<stop stop-color="#897DF7"/>
<stop offset="1" stop-color="#504991"/>
</linearGradient>
<linearGradient id="paint5_linear_484_3956" x1="21.5111" y1="91.3407" x2="22.1565" y2="79.0147" gradientUnits="userSpaceOnUse">
<stop offset="0.299989" stop-color="#897DF7"/>
<stop offset="1" stop-color="#504991"/>
</linearGradient>
<linearGradient id="paint6_linear_484_3956" x1="26.12" y1="87.1149" x2="26.12" y2="95.2453" gradientUnits="userSpaceOnUse">
<stop stop-color="#897DF7"/>
<stop offset="1" stop-color="#504991"/>
</linearGradient>
<linearGradient id="paint7_linear_484_3956" x1="26.12" y1="95.2453" x2="26.7787" y2="82.8979" gradientUnits="userSpaceOnUse">
<stop offset="0.299989" stop-color="#897DF7"/>
<stop offset="1" stop-color="#504991"/>
</linearGradient>
<linearGradient id="paint8_linear_484_3956" x1="30.6433" y1="91.483" x2="30.6433" y2="98.7291" gradientUnits="userSpaceOnUse">
<stop stop-color="#897DF7"/>
<stop offset="1" stop-color="#504991"/>
</linearGradient>
<linearGradient id="paint9_linear_484_3956" x1="30.6433" y1="98.7291" x2="31.229" y2="87.7246" gradientUnits="userSpaceOnUse">
<stop offset="0.299989" stop-color="#897DF7"/>
<stop offset="1" stop-color="#504991"/>
</linearGradient>
<linearGradient id="paint10_linear_484_3956" x1="16.6477" y1="80.3717" x2="16.6477" y2="87.4185" gradientUnits="userSpaceOnUse">
<stop stop-color="#897DF7"/>
<stop offset="1" stop-color="#504991"/>
</linearGradient>
<linearGradient id="paint11_linear_484_3956" x1="16.6477" y1="87.4185" x2="17.2332" y2="76.7183" gradientUnits="userSpaceOnUse">
<stop offset="0.299989" stop-color="#897DF7"/>
<stop offset="1" stop-color="#504991"/>
</linearGradient>
</defs>
</svg>
