<svg width="20" height="20" viewBox="0 0 20 20" fill="none" xmlns="http://www.w3.org/2000/svg">
<rect width="20" height="20" rx="6" fill="#C0A091"/>
<path fill-rule="evenodd" clip-rule="evenodd" d="M15.0001 5.83325C15.4603 5.83325 15.8334 6.20635 15.8334 6.66659L15.8334 9.16659C15.8334 9.62682 15.4603 9.99992 15.0001 9.99992C14.5398 9.99992 14.1667 9.62682 14.1667 9.16659L14.1667 6.66659C14.1667 6.20635 14.5398 5.83325 15.0001 5.83325Z" fill="#4F3422"/>
<path fill-rule="evenodd" clip-rule="evenodd" d="M5.00008 5.83325C5.46032 5.83325 5.83341 6.20635 5.83341 6.66659L5.83341 9.16659C5.83341 9.62682 5.46032 9.99992 5.00008 9.99992C4.53984 9.99992 4.16675 9.62682 4.16675 9.16659L4.16675 6.66659C4.16675 6.20635 4.53984 5.83325 5.00008 5.83325Z" fill="#4F3422"/>
<path fill-rule="evenodd" clip-rule="evenodd" d="M4.16675 13.3333C4.16675 12.8731 4.53984 12.5 5.00008 12.5H15.0001C15.4603 12.5 15.8334 12.8731 15.8334 13.3333C15.8334 13.7936 15.4603 14.1667 15.0001 14.1667H5.00008C4.53984 14.1667 4.16675 13.7936 4.16675 13.3333Z" fill="#4F3422"/>
</svg>
