<svg width="40" height="40" viewBox="0 0 40 40" fill="none" xmlns="http://www.w3.org/2000/svg">
<rect width="40" height="40" rx="12" fill="#EF8834"/>
<path fill-rule="evenodd" clip-rule="evenodd" d="M13.9123 23.7332C15.6587 22.3931 17.7986 21.6667 19.9999 21.6667C22.2013 21.6667 24.3411 22.3931 26.0875 23.7332C27.834 25.0733 29.0894 26.9522 29.6592 29.0786C29.8974 29.9677 29.3698 30.8816 28.4807 31.1198C27.5915 31.358 26.6777 30.8304 26.4394 29.9413C26.0596 28.5237 25.2226 27.2711 24.0583 26.3777C22.894 25.4843 21.4675 25.0001 19.9999 25.0001C18.5323 25.0001 17.1058 25.4843 15.9415 26.3777C14.7772 27.2711 13.9402 28.5237 13.5604 29.9413C13.3222 30.8304 12.4083 31.358 11.5192 31.1198C10.6301 30.8816 10.1024 29.9677 10.3407 29.0786C10.9104 26.9522 12.1659 25.0733 13.9123 23.7332Z" fill="#9A3412"/>
<path fill-rule="evenodd" clip-rule="evenodd" d="M9.99992 11.6667C10.9204 11.6667 11.6666 12.4129 11.6666 13.3334V18.3334C11.6666 19.2539 10.9204 20.0001 9.99992 20.0001C9.07944 20.0001 8.33325 19.2539 8.33325 18.3334V13.3334C8.33325 12.4129 9.07944 11.6667 9.99992 11.6667Z" fill="#9A3412"/>
<path fill-rule="evenodd" clip-rule="evenodd" d="M29.9999 11.6667C30.9204 11.6667 31.6666 12.4129 31.6666 13.3334V18.3334C31.6666 19.2539 30.9204 20.0001 29.9999 20.0001C29.0794 20.0001 28.3333 19.2539 28.3333 18.3334V13.3334C28.3333 12.4129 29.0794 11.6667 29.9999 11.6667Z" fill="#9A3412"/>
</svg>
