<svg width="20" height="20" viewBox="0 0 20 20" fill="none" xmlns="http://www.w3.org/2000/svg">
<path d="M10 2.5V1.66667V1.66667V2.5ZM14.9971 4.4082L14.7598 5.20703L15.5526 3.78702L14.9971 4.4082ZM13.333 4.16699V3.33366H13.333L13.333 4.16699ZM7.5 10H6.66667V10H7.5ZM13.333 15.833L13.333 16.6663H13.333V15.833ZM14.9971 15.5908L15.5526 16.212L14.7597 14.792L14.9971 15.5908ZM10 17.5V18.3333V18.3333V17.5ZM2.5 10H1.66667V10H2.5ZM10 2.5V3.33333C11.7067 3.33333 13.2616 3.97421 14.4416 5.02938L14.9971 4.4082L15.5526 3.78702C14.0793 2.46954 12.1327 1.66667 10 1.66667V2.5ZM14.9971 4.4082L15.2344 3.60938C14.6313 3.43021 13.9928 3.33366 13.333 3.33366V4.16699V5.00033C13.8295 5.00033 14.3082 5.0729 14.7598 5.20703L14.9971 4.4082ZM13.333 4.16699L13.333 3.33366C9.65129 3.33386 6.66667 6.31816 6.66667 10H7.5H8.33333C8.33333 7.23873 10.5717 5.00048 13.3331 5.00033L13.333 4.16699ZM7.5 10H6.66667C6.66667 13.6818 9.65129 16.6661 13.333 16.6663L13.333 15.833L13.3331 14.9997C10.5717 14.9995 8.33333 12.7613 8.33333 10H7.5ZM13.333 15.833V16.6663C13.9938 16.6663 14.6321 16.5686 15.2344 16.3896L14.9971 15.5908L14.7597 14.792C14.3072 14.9264 13.8287 14.9997 13.333 14.9997V15.833ZM14.9971 15.5908L14.4415 14.9697C13.2614 16.0252 11.7067 16.6667 10 16.6667V17.5V18.3333C12.1332 18.3333 14.0795 17.5296 15.5526 16.212L14.9971 15.5908ZM10 17.5V16.6667C6.3181 16.6667 3.33333 13.6819 3.33333 10H2.5H1.66667C1.66667 14.6024 5.39763 18.3333 10 18.3333V17.5ZM2.5 10H3.33333C3.33333 6.3181 6.3181 3.33333 10 3.33333V2.5V1.66667C5.39763 1.66667 1.66667 5.39763 1.66667 10H2.5Z" fill="white"/>
</svg>
