<svg width="40" height="40" viewBox="0 0 40 40" fill="none" xmlns="http://www.w3.org/2000/svg">
<rect width="40" height="40" rx="12" fill="#FACC15"/>
<path fill-rule="evenodd" clip-rule="evenodd" d="M29.9999 11.6667C30.9204 11.6667 31.6666 12.4129 31.6666 13.3334L31.6666 18.3334C31.6666 19.2539 30.9204 20.0001 29.9999 20.0001C29.0794 20.0001 28.3333 19.2539 28.3333 18.3334L28.3333 13.3334C28.3333 12.4129 29.0794 11.6667 29.9999 11.6667Z" fill="#854D0E"/>
<path fill-rule="evenodd" clip-rule="evenodd" d="M9.99992 11.6667C10.9204 11.6667 11.6666 12.4129 11.6666 13.3334L11.6666 18.3334C11.6666 19.2539 10.9204 20.0001 9.99992 20.0001C9.07944 20.0001 8.33325 19.2539 8.33325 18.3334L8.33325 13.3334C8.33325 12.4129 9.07944 11.6667 9.99992 11.6667Z" fill="#854D0E"/>
<path fill-rule="evenodd" clip-rule="evenodd" d="M28.4807 23.8802C29.3698 24.1184 29.8974 25.0323 29.6592 25.9214C29.0894 28.0478 27.834 29.9267 26.0875 31.2668C24.3411 32.6069 22.2013 33.3333 19.9999 33.3333C17.7986 33.3333 15.6587 32.6069 13.9123 31.2668C12.1659 29.9267 10.9104 28.0478 10.3407 25.9214C10.1024 25.0323 10.6301 24.1184 11.5192 23.8802C12.4083 23.642 13.3222 24.1696 13.5604 25.0587C13.9402 26.4763 14.7772 27.7289 15.9415 28.6223C17.1058 29.5157 18.5323 29.9999 19.9999 29.9999C21.4675 29.9999 22.894 29.5157 24.0583 28.6223C25.2226 27.7289 26.0596 26.4763 26.4394 25.0587C26.6777 24.1696 27.5915 23.642 28.4807 23.8802Z" fill="#854D0E"/>
</svg>
