<svg width="24" height="24" viewBox="0 0 24 24" fill="none" xmlns="http://www.w3.org/2000/svg">
<path d="M8 3C5.23858 3 3 5.23858 3 8V9C3 11.7614 5.23858 14 8 14H9C11.7614 14 14 11.7614 14 9V8C14 5.23858 11.7614 3 9 3H8Z" fill="#897DF7"/>
<path d="M3 18C3 16.3431 4.34315 15 6 15H11C12.6569 15 14 16.3431 14 18C14 19.6569 12.6569 21 11 21H6C4.34315 21 3 19.6569 3 18Z" fill="#897DF7"/>
<path d="M18 10C16.3431 10 15 11.3431 15 13V18C15 19.6569 16.3431 21 18 21C19.6569 21 21 19.6569 21 18V13C21 11.3431 19.6569 10 18 10Z" fill="#897DF7"/>
<path d="M18 3C16.3431 3 15 4.34315 15 6C15 7.65685 16.3431 9 18 9C19.6569 9 21 7.65685 21 6C21 4.34315 19.6569 3 18 3Z" fill="#897DF7"/>
</svg>
