<svg width="20" height="20" viewBox="0 0 20 20" fill="none" xmlns="http://www.w3.org/2000/svg">
<path d="M10.8334 18.3333L10.8334 5" stroke="white" stroke-width="1.66667" stroke-linejoin="round"/>
<path d="M7.5 6.66675C9.34095 6.66675 10.8333 8.15913 10.8333 10.0001" stroke="white" stroke-width="1.66667" stroke-linejoin="round"/>
<path d="M13.3334 9.16675C13.3334 9.82979 13.07 10.4657 12.6011 10.9345C12.1323 11.4034 11.4964 11.6667 10.8334 11.6667C10.1703 11.6667 9.53445 11.4034 9.06561 10.9345C8.59677 10.4657 8.33337 9.82979 8.33337 9.16675" stroke="white" stroke-width="1.66667" stroke-linejoin="round"/>
<path d="M14.1938 18.3333V14.8302C14.1938 13.7463 14.7748 12.7682 15.4398 11.9122C15.6967 11.5816 15.9182 11.223 16.0997 10.8421C16.5305 9.93778 16.7211 8.93782 16.6533 7.93848C16.5855 6.93914 16.2615 5.97409 15.7126 5.13628C15.1636 4.29848 14.4082 3.61614 13.519 3.155C12.6298 2.69385 11.6369 2.46943 10.6358 2.50335C9.63477 2.53727 8.6593 2.82838 7.80339 3.34866C6.94747 3.86894 6.23995 4.60084 5.74895 5.47389C5.25796 6.34693 5.00004 7.3317 5.00004 8.33333L3.33337 11.6667H5.00004V14.1667H7.50004V18.3333" stroke="white" stroke-width="1.66667" stroke-linejoin="round"/>
<path d="M13.3334 9.16667V7.5" stroke="white" stroke-width="1.66667" stroke-linejoin="round"/>
</svg>
