<svg width="16" height="16" viewBox="0 0 16 16" fill="none" xmlns="http://www.w3.org/2000/svg">
<path d="M10.7933 1.3335H5.20659C2.77992 1.3335 1.33325 2.78016 1.33325 5.20683V10.7868C1.33325 13.2202 2.77992 14.6668 5.20659 14.6668H10.7866C13.2133 14.6668 14.6599 13.2202 14.6599 10.7935V5.20683C14.6666 2.78016 13.2199 1.3335 10.7933 1.3335ZM9.77325 9.1535L8.91992 9.64683L8.06659 10.1402C6.96659 10.7735 6.06659 10.2535 6.06659 8.98683V8.00016V7.0135C6.06659 5.74016 6.96659 5.22683 8.06659 5.86016L8.91992 6.3535L9.77325 6.84683C10.8733 7.48016 10.8733 8.52016 9.77325 9.1535Z" fill="white"/>
</svg>
