<svg width="24" height="24" viewBox="0 0 24 24" fill="none" xmlns="http://www.w3.org/2000/svg">
<rect width="24" height="24" rx="12" fill="url(#paint0_linear_411_20093)"/>
<path d="M4.72119 18.9814L5.75013 15.245C5.11399 14.1483 4.78029 12.9063 4.78376 11.6366C4.78376 7.65807 8.03742 4.42334 12.0315 4.42334C13.9712 4.42334 15.7927 5.17407 17.1588 6.53716C18.5284 7.90025 19.2827 9.71308 19.2792 11.6401C19.2792 15.6186 16.0256 18.8534 12.028 18.8534H12.0245C10.8114 18.8534 9.61905 18.5489 8.55884 17.9746L4.72119 18.9814ZM8.74307 16.6704L8.96207 16.8018C9.88672 17.3484 10.9469 17.6356 12.028 17.639H12.0315C15.3512 17.639 18.0556 14.9509 18.0556 11.6435C18.0556 10.0417 17.4299 8.53681 16.2932 7.40206C15.1565 6.26731 13.6409 5.64458 12.0315 5.64458C8.71179 5.64112 6.00736 8.32924 6.00736 11.6366C6.00736 12.7679 6.32369 13.8715 6.92853 14.8264L7.07105 15.0547L6.46273 17.2654L8.74307 16.6704Z" fill="white"/>
<path d="M4.9751 18.7287L5.96927 15.1203C5.354 14.0652 5.03072 12.8647 5.03072 11.64C5.03419 7.79981 8.17313 4.67578 12.0316 4.67578C13.9053 4.67578 15.6607 5.4023 16.9816 6.71695C18.3026 8.0316 19.0291 9.78216 19.0291 11.6434C19.0291 15.4836 15.8867 18.6076 12.0316 18.6076H12.0282C10.8567 18.6076 9.70611 18.3136 8.68413 17.76L4.9751 18.7287Z" fill="url(#paint1_linear_411_20093)"/>
<path d="M4.72119 18.9814L5.75013 15.245C5.11399 14.1483 4.78029 12.9063 4.78376 11.6366C4.78376 7.65807 8.03742 4.42334 12.0315 4.42334C13.9712 4.42334 15.7927 5.17407 17.1588 6.53716C18.5284 7.90025 19.2827 9.71308 19.2792 11.6401C19.2792 15.6186 16.0256 18.8534 12.028 18.8534H12.0245C10.8114 18.8534 9.61905 18.5489 8.55884 17.9746L4.72119 18.9814ZM8.74307 16.6704L8.96207 16.8018C9.88672 17.3484 10.9469 17.6356 12.028 17.639H12.0315C15.3512 17.639 18.0556 14.9509 18.0556 11.6435C18.0556 10.0417 17.4299 8.53681 16.2932 7.40206C15.1565 6.26731 13.6409 5.64458 12.0315 5.64458C8.71179 5.64112 6.00736 8.32924 6.00736 11.6366C6.00736 12.7679 6.32369 13.8715 6.92853 14.8264L7.07105 15.0547L6.46273 17.2654L8.74307 16.6704Z" fill="url(#paint2_linear_411_20093)"/>
<path fill-rule="evenodd" clip-rule="evenodd" d="M10.2203 8.62C10.0847 8.31901 9.94216 8.3121 9.81355 8.30864C9.70926 8.30518 9.5876 8.30518 9.46593 8.30518C9.34427 8.30518 9.14961 8.35015 8.98275 8.53005C8.8159 8.70995 8.3501 9.14586 8.3501 10.035C8.3501 10.9206 9.00013 11.7786 9.09051 11.8997C9.18089 12.0208 10.3454 13.8994 12.1843 14.6224C13.7138 15.2244 14.0266 15.1033 14.3568 15.0722C14.6871 15.041 15.4275 14.6363 15.5804 14.2142C15.7299 13.7921 15.7299 13.4323 15.6847 13.3562C15.6395 13.2801 15.5179 13.2351 15.3371 13.1452C15.1564 13.0552 14.2665 12.6193 14.0996 12.557C13.9328 12.4982 13.8111 12.4671 13.6929 12.647C13.5712 12.8269 13.2236 13.2317 13.1193 13.3527C13.0151 13.4738 12.9073 13.4877 12.7265 13.3977C12.5458 13.3078 11.9618 13.1175 11.27 12.5017C10.7312 12.0243 10.3663 11.4327 10.262 11.2528C10.1577 11.0729 10.2515 10.976 10.3419 10.886C10.4219 10.8065 10.5227 10.675 10.6131 10.5712C10.7034 10.4674 10.7347 10.3913 10.7938 10.2702C10.8529 10.1491 10.8251 10.0454 10.7799 9.95541C10.7347 9.86892 10.3802 8.97634 10.2203 8.62Z" fill="white"/>
<defs>
<linearGradient id="paint0_linear_411_20093" x1="11.9994" y1="23.9988" x2="11.9994" y2="-0.000839698" gradientUnits="userSpaceOnUse">
<stop stop-color="#20B038"/>
<stop offset="1" stop-color="#60D66A"/>
</linearGradient>
<linearGradient id="paint1_linear_411_20093" x1="12.0017" y1="18.728" x2="12.0017" y2="4.67529" gradientUnits="userSpaceOnUse">
<stop stop-color="#20B038"/>
<stop offset="1" stop-color="#60D66A"/>
</linearGradient>
<linearGradient id="paint2_linear_411_20093" x1="12.0016" y1="18.98" x2="12.0016" y2="4.42334" gradientUnits="userSpaceOnUse">
<stop stop-color="#F9F9F9"/>
<stop offset="1" stop-color="white"/>
</linearGradient>
</defs>
</svg>
